<?xml version="1.0" encoding="UTF-8" standalone="no"?>
<svg
   version="1.1"
   width="410"
   height="225"
   id="svg44"
   sodipodi:docname="homisoftware-logo.svg"
   inkscape:version="1.1.2 (b8e25be833, 2022-02-05)"
   xmlns:inkscape="http://www.inkscape.org/namespaces/inkscape"
   xmlns:sodipodi="http://sodipodi.sourceforge.net/DTD/sodipodi-0.dtd"
   xmlns="http://www.w3.org/2000/svg"
   xmlns:svg="http://www.w3.org/2000/svg">
  <defs
     id="defs48" />
  <sodipodi:namedview
     id="namedview46"
     pagecolor="#ffffff"
     bordercolor="#666666"
     borderopacity="1.0"
     inkscape:pageshadow="2"
     inkscape:pageopacity="0.0"
     inkscape:pagecheckerboard="0"
     showgrid="false"
     inkscape:zoom="1.746"
     inkscape:cx="86.483391"
     inkscape:cy="250.28637"
     inkscape:window-width="2560"
     inkscape:window-height="1377"
     inkscape:window-x="-8"
     inkscape:window-y="-8"
     inkscape:window-maximized="1"
     inkscape:current-layer="svg44" />
  <g
     data-paper-data="{&quot;description&quot;:&quot;Logo for homisoftware\n=====================\n\nThis logo was generated by MarkMaker at http://emblemmatic.org/markmaker/ and may be composed of elements designed by others.\n\nThe font is Arbutus designed by Karolina Lach and released under the OFL license via Google Fonts: https://www.google.com/fonts/specimen/Arbutus. The font includes this copyright statement: Copyright (c) 2011, Sorkin Type Co (www.sorkintype.com eben@eyebytes.com) with Reserved Font Name \\\&quot;Arbutus\\\&quot;. This Font Software is licensed under the SIL Open Font License, Version 1.1. This license is available with a FAQ at\n\nMarkMaker uses semantic data from the Princeton University WordNet database http://wordnet.princeton.edu and font descriptions from Google Fonts https://www.google.com/fonts.&quot;}"
     fill="white"
     fill-rule="nonzero"
     stroke="none"
     stroke-width="1"
     stroke-linecap="butt"
     stroke-linejoin="miter"
     stroke-miterlimit="10"
     stroke-dasharray="none"
     stroke-dashoffset="0"
     font-family="none"
     font-weight="none"
     font-size="none"
     text-anchor="none"
     style="mix-blend-mode:normal"
     id="g42"
     transform="translate(-44.100802,-138.60252)">
    <g
       data-paper-data="{&quot;elementType&quot;:&quot;logo&quot;}"
       id="g32">
      <g
         data-paper-data="{&quot;elementType&quot;:&quot;text&quot;}"
         id="g30">
        <g
           data-paper-data="{&quot;baseline&quot;:81.54296875,&quot;elementType&quot;:&quot;row&quot;}"
           id="g28">
          <g
             data-paper-data="{&quot;baselineProportion&quot;:0.9940476190476191,&quot;fontSize&quot;:100,&quot;baseline&quot;:81.54296875,&quot;elementType&quot;:&quot;word&quot;}"
             id="g26">
            <path
               d="m 50,357.5105 c 0.09824,-0.31928 0.16578,-0.69997 0.20262,-1.14206 0.03684,-0.44209 0.05526,-0.87803 0.05526,-1.30784 0,-0.39297 -0.02456,-0.78593 -0.07368,-1.1789 -0.04912,-0.39297 -0.11052,-0.77979 -0.1842,-1.16048 0.68769,0 1.25565,-0.0307 1.70387,-0.0921 0.44823,-0.0614 0.80742,-0.16885 1.07759,-0.32235 0.27016,-0.1535 0.45744,-0.37148 0.56182,-0.65392 0.10438,-0.28244 0.15657,-0.64471 0.15657,-1.0868 v -3.09461 c 0,-0.39297 -0.02763,-0.78593 -0.08289,-1.1789 -0.05526,-0.39297 -0.13508,-0.75216 -0.23946,-1.07759 -0.10438,-0.32542 -0.23639,-0.59866 -0.39604,-0.8197 -0.15964,-0.22104 -0.34385,-0.36227 -0.55261,-0.42367 0.44209,-0.14736 0.76444,-0.482 0.96706,-1.0039 0.20262,-0.52191 0.30393,-1.28021 0.30393,-2.2749 v -5.47082 c -0.01228,-0.52805 -0.07982,-0.94864 -0.20262,-1.26179 -0.1228,-0.31314 -0.29165,-0.55261 -0.50656,-0.71839 -0.2149,-0.16578 -0.47893,-0.2763 -0.79207,-0.33156 -0.31314,-0.0553 -0.6662,-0.0829 -1.05917,-0.0829 h -0.57103 c 0.09824,-0.2456 0.1842,-0.58638 0.25788,-1.02232 0.07368,-0.43595 0.11052,-0.89338 0.11052,-1.37231 0,-0.46665 -0.03377,-0.91794 -0.10131,-1.35389 -0.06754,-0.43595 -0.15657,-0.78286 -0.26709,-1.04075 0.23332,0.0368 0.51577,0.0675 0.84733,0.0921 0.33156,0.0246 0.69383,0.0461 1.0868,0.0645 0.39297,0.0184 0.81049,0.0338 1.25258,0.046 0.44209,0.0123 0.89645,0.0184 1.3631,0.0184 0.62629,0 1.25872,-0.0123 1.89729,-0.0368 0.63857,-0.0246 1.24951,-0.0614 1.83282,-0.11052 0.58331,-0.0491 1.12364,-0.11666 1.62098,-0.20262 0.49735,-0.086 0.9118,-0.19648 1.24337,-0.33156 -0.2456,0.47893 -0.44516,1.01311 -0.59866,1.60256 -0.1535,0.58945 -0.27323,1.21574 -0.3592,1.87887 -0.08596,0.66313 -0.14122,1.35696 -0.16578,2.08149 -0.02456,0.72453 -0.03684,1.46134 -0.03684,2.21043 v 5.91291 c 0.47893,-0.19648 0.87496,-0.44823 1.18811,-0.75523 0.31314,-0.307 0.57103,-0.63243 0.77365,-0.97627 0.20262,-0.34385 0.35613,-0.68462 0.46051,-1.02232 0.10438,-0.3377 0.18727,-0.6355 0.24867,-0.89338 0.15964,0.0982 0.40218,0.18727 0.7276,0.26709 0.32542,0.0798 0.69997,0.14736 1.12364,0.20262 0.42367,0.0553 0.87496,0.0982 1.35389,0.12894 0.47893,0.0307 0.94557,0.0461 1.39994,0.0461 0.40525,0 0.81663,-0.0123 1.23416,-0.0368 0.41753,-0.0246 0.81049,-0.0645 1.1789,-0.11973 0.36841,-0.0553 0.69997,-0.1228 0.99469,-0.20262 0.29472,-0.0798 0.51577,-0.17499 0.66313,-0.28551 0.39297,1.04382 0.88724,1.92799 1.48283,2.65252 0.59559,0.72453 1.39073,1.23416 2.38542,1.52888 -0.19648,0.2456 -0.36841,0.50963 -0.51577,0.79207 -0.14736,0.28244 -0.27323,0.6048 -0.37762,0.96706 -0.10438,0.36227 -0.18113,0.77672 -0.23025,1.24337 -0.04912,0.46665 -0.07368,1.00697 -0.07368,1.62098 v 4.14456 c 0,0.44209 0.05219,0.80435 0.15657,1.0868 0.10438,0.28244 0.28244,0.50042 0.53419,0.65392 0.25174,0.1535 0.57717,0.26095 0.97627,0.32235 0.39911,0.0614 0.89338,0.0921 1.48283,0.0921 -0.03684,0.14736 -0.07368,0.30086 -0.11052,0.46051 -0.03684,0.15964 -0.06754,0.34077 -0.0921,0.5434 -0.02456,0.20262 -0.04605,0.43595 -0.06447,0.69997 -0.01842,0.26402 -0.02763,0.5741 -0.02763,0.93022 0,0.35613 0.02149,0.74295 0.06447,1.16048 0.04298,0.41753 0.11973,0.74909 0.23025,0.99469 -0.38069,-0.0614 -0.82277,-0.11973 -1.32626,-0.17499 -0.50349,-0.0553 -1.04075,-0.10438 -1.61177,-0.14736 -0.57103,-0.043 -1.16969,-0.0768 -1.79598,-0.10131 -0.62629,-0.0246 -1.25258,-0.0368 -1.87887,-0.0368 -0.50349,0 -1.02232,0.009 -1.55651,0.0276 -0.53419,0.0184 -1.05303,0.0491 -1.55651,0.0921 -0.50349,0.043 -0.9732,0.0921 -1.40915,0.14736 -0.43595,0.0553 -0.80128,0.11973 -1.09601,0.19341 0.03684,-0.14736 0.07061,-0.31928 0.10131,-0.51577 0.0307,-0.19648 0.05526,-0.41139 0.07368,-0.64471 0.01842,-0.23332 0.03377,-0.47279 0.04605,-0.71839 0.01228,-0.2456 0.01842,-0.47893 0.01842,-0.69997 0,-0.1228 -0.0061,-0.28858 -0.01842,-0.49735 -0.01228,-0.20876 -0.02763,-0.4206 -0.04605,-0.6355 -0.01842,-0.2149 -0.04298,-0.4206 -0.07368,-0.61708 -0.0307,-0.19648 -0.06447,-0.34999 -0.10131,-0.46051 0.41753,0 0.76444,-0.0215 1.04075,-0.0645 0.2763,-0.043 0.50042,-0.13815 0.67234,-0.28551 0.17192,-0.14736 0.29472,-0.36534 0.36841,-0.65392 0.07368,-0.28858 0.11052,-0.67234 0.11052,-1.15127 v -3.83142 c 0,-0.47893 -0.04912,-0.93329 -0.14736,-1.3631 -0.09824,-0.42981 -0.24867,-0.80742 -0.4513,-1.13285 -0.20262,-0.32542 -0.46358,-0.58331 -0.78286,-0.77365 -0.31928,-0.19034 -0.70611,-0.28551 -1.16048,-0.28551 -0.307,0 -0.71532,0.0522 -1.22495,0.15657 -0.50963,0.10438 -1.01311,0.28244 -1.51046,0.53419 -0.49735,0.25174 -0.92715,0.58945 -1.28942,1.01311 -0.36227,0.42367 -0.5434,0.94864 -0.5434,1.57493 v 4.10772 c 0,0.79821 0.2456,1.35696 0.73681,1.67624 0.49121,0.31928 1.1789,0.47893 2.06307,0.47893 -0.07368,0.25788 -0.13201,0.57717 -0.17499,0.95785 -0.04298,0.38069 -0.06447,0.78593 -0.06447,1.21574 0,0.46665 0.01842,0.93636 0.05526,1.40915 0.03684,0.47279 0.09824,0.87496 0.1842,1.20653 -0.78593,-0.1228 -1.71923,-0.23025 -2.79988,-0.32235 -1.08066,-0.0921 -2.40078,-0.13815 -3.96036,-0.13815 -0.58945,0 -1.19425,0.009 -1.8144,0.0276 -0.62015,0.0184 -1.21574,0.0491 -1.78677,0.0921 -0.57103,0.043 -1.10215,0.0921 -1.59335,0.14736 -0.49121,0.0553 -0.89645,0.11973 -1.21574,0.19341 z"
               data-paper-data="{&quot;elementType&quot;:&quot;letter&quot;,&quot;baseline&quot;:79.345703125,&quot;baselineProportion&quot;:1,&quot;fontSize&quot;:100}"
               id="path2" />
            <path
               d="m 88.22073,354.45274 c 0.13508,-0.19648 0.26402,-0.44823 0.38683,-0.75523 0.1228,-0.307 0.23025,-0.70918 0.32235,-1.20653 0.0921,-0.49735 0.16578,-1.11136 0.22104,-1.84203 0.05526,-0.73067 0.08289,-1.62405 0.08289,-2.68015 0,-1.10522 -0.02763,-2.00167 -0.08289,-2.68936 -0.05526,-0.68769 -0.12894,-1.24951 -0.22104,-1.68545 -0.0921,-0.43595 -0.19955,-0.789 -0.32235,-1.05917 -0.1228,-0.27016 -0.2456,-0.53419 -0.36841,-0.79207 0.49121,-0.0491 1.04996,-0.19341 1.67624,-0.43288 0.62629,-0.23946 1.23109,-0.5434 1.8144,-0.9118 0.58331,-0.36841 1.10215,-0.79207 1.55651,-1.271 0.45437,-0.47893 0.75523,-0.98241 0.90259,-1.51046 0.22104,0.0982 0.54033,0.18727 0.95785,0.26709 0.41753,0.0798 0.90259,0.14736 1.4552,0.20262 0.55261,0.0553 1.15434,0.0982 1.80519,0.12894 0.65085,0.0307 1.32626,0.046 2.02623,0.046 0.63857,0 1.25872,-0.0215 1.86045,-0.0645 0.60173,-0.043 1.15434,-0.0952 1.65782,-0.15657 0.50349,-0.0614 0.93943,-0.12894 1.30784,-0.20262 0.36841,-0.0737 0.64471,-0.14736 0.82891,-0.22104 0.14736,0.52805 0.45437,1.03154 0.92101,1.51046 0.46665,0.47893 0.99776,0.90259 1.59335,1.271 0.59559,0.36841 1.20346,0.67234 1.82361,0.9118 0.62015,0.23946 1.15741,0.38376 1.61177,0.43288 -0.1228,0.2456 -0.24253,0.50042 -0.3592,0.76444 -0.11666,0.26402 -0.22104,0.61401 -0.31314,1.04996 -0.0921,0.43595 -0.16578,0.99469 -0.22104,1.67624 -0.0553,0.68155 -0.0829,1.56265 -0.0829,2.64331 0,1.06838 0.0184,1.97404 0.0553,2.71699 0.0368,0.74295 0.0921,1.36617 0.16578,1.86966 0.0737,0.50349 0.17499,0.90873 0.30393,1.21574 0.12894,0.307 0.28551,0.56489 0.46972,0.77365 -0.307,0 -0.65699,0.046 -1.04996,0.13815 -0.39297,0.0921 -0.80128,0.2149 -1.22495,0.36841 -0.42367,0.1535 -0.84119,0.33463 -1.25258,0.5434 -0.41139,0.20876 -0.789,0.43288 -1.13285,0.67234 -0.34385,0.23946 -0.63857,0.48814 -0.88417,0.74602 -0.2456,0.25788 -0.41139,0.51577 -0.49735,0.77365 -0.23332,-0.086 -0.54647,-0.16578 -0.93943,-0.23946 -0.39297,-0.0737 -0.84733,-0.14122 -1.3631,-0.20262 -0.51577,-0.0614 -1.08066,-0.11052 -1.69466,-0.14736 -0.61401,-0.0368 -1.25872,-0.0553 -1.93413,-0.0553 -0.66313,0 -1.29863,0.0184 -1.9065,0.0553 -0.60787,0.0368 -1.16662,0.0829 -1.67624,0.13815 -0.50963,0.0553 -0.95785,0.1228 -1.34468,0.20262 -0.38683,0.0798 -0.68462,0.16271 -0.89338,0.24867 -0.20876,-0.45437 -0.55875,-0.87803 -1.04996,-1.271 -0.49121,-0.39297 -1.03154,-0.73681 -1.62098,-1.03154 -0.58945,-0.29472 -1.18811,-0.52498 -1.79598,-0.69076 -0.60787,-0.16578 -1.13285,-0.24867 -1.57493,-0.24867 m 8.38125,-6.55762 c 0,1.04382 0.06447,1.94027 0.19341,2.68936 0.12894,0.74909 0.34077,1.3631 0.6355,1.84203 0.29472,0.47893 0.67541,0.83198 1.14206,1.05917 0.46665,0.22718 1.03768,0.34077 1.71309,0.34077 0.71225,0 1.29556,-0.15043 1.74993,-0.4513 0.45437,-0.30086 0.81049,-0.71532 1.06838,-1.24337 0.25788,-0.52805 0.43595,-1.15434 0.53419,-1.87887 0.0982,-0.72453 0.14736,-1.51046 0.14736,-2.35779 0,-0.84733 -0.0491,-1.63019 -0.14736,-2.34858 -0.0982,-0.71839 -0.2763,-1.33854 -0.53419,-1.86045 -0.25788,-0.52191 -0.61401,-0.92715 -1.06838,-1.21574 -0.45437,-0.28858 -1.03768,-0.43288 -1.74993,-0.43288 -0.67541,0 -1.24644,0.11052 -1.71309,0.33156 -0.46665,0.22104 -0.84733,0.56796 -1.14206,1.04075 -0.29472,0.47279 -0.50656,1.07759 -0.6355,1.8144 -0.12894,0.73681 -0.19341,1.62712 -0.19341,2.67094 z"
               data-paper-data="{&quot;elementType&quot;:&quot;letter&quot;,&quot;baseline&quot;:52.734375,&quot;baselineProportion&quot;:0.9908256880733946,&quot;fontSize&quot;:100}"
               id="path4" />
            <path
               d="m 123.75211,357.5105 c 0.0982,-0.31928 0.16578,-0.69997 0.20262,-1.14206 0.0368,-0.44209 0.0553,-0.87803 0.0553,-1.30784 0,-0.39297 -0.0246,-0.78593 -0.0737,-1.1789 -0.0491,-0.39297 -0.11052,-0.77979 -0.1842,-1.16048 0.68769,0 1.25565,-0.0307 1.70387,-0.0921 0.44823,-0.0614 0.80742,-0.16885 1.07759,-0.32235 0.27016,-0.1535 0.45744,-0.37148 0.56182,-0.65392 0.10438,-0.28244 0.15657,-0.64471 0.15657,-1.0868 v -5.12084 c -0.0123,-0.52805 -0.0798,-0.94864 -0.20262,-1.26179 -0.1228,-0.31314 -0.29165,-0.55261 -0.50656,-0.71839 -0.2149,-0.16578 -0.47893,-0.2763 -0.79207,-0.33156 -0.31314,-0.0553 -0.6662,-0.0829 -1.05917,-0.0829 h -0.57103 c 0.0982,-0.2456 0.1842,-0.58638 0.25788,-1.02232 0.0737,-0.43595 0.11052,-0.89338 0.11052,-1.37231 0,-0.46665 -0.0338,-0.9118 -0.10131,-1.33547 -0.0675,-0.42367 -0.15657,-0.76444 -0.26709,-1.02232 0.45437,0.0614 1.01311,0.11052 1.67624,0.14736 0.66313,0.0368 1.3631,0.0553 2.09991,0.0553 0.54033,0 1.08373,-0.0123 1.63019,-0.0368 0.54647,-0.0246 1.07759,-0.0645 1.59335,-0.11973 0.51577,-0.0553 1.00083,-0.12587 1.4552,-0.21183 0.45437,-0.086 0.85961,-0.19648 1.21574,-0.33156 -0.086,0.2456 -0.14429,0.49428 -0.17499,0.74602 -0.0307,0.25174 -0.0461,0.50656 -0.0461,0.76444 0,0.34385 0.0215,0.68462 0.0645,1.02232 0.043,0.3377 0.0952,0.6662 0.15657,0.98548 0.50349,-0.1842 0.91794,-0.43288 1.24337,-0.74602 0.32542,-0.31314 0.59252,-0.64471 0.80128,-0.99469 0.20876,-0.34999 0.36841,-0.69997 0.47893,-1.04996 0.11052,-0.34999 0.20262,-0.65392 0.2763,-0.9118 0.15964,0.0982 0.40218,0.18727 0.7276,0.26709 0.32542,0.0798 0.69997,0.14736 1.12364,0.20262 0.42367,0.0553 0.87496,0.0982 1.35389,0.12894 0.47893,0.0307 0.94557,0.046 1.39994,0.046 0.40525,0 0.81663,-0.0123 1.23416,-0.0368 0.41753,-0.0246 0.81049,-0.0645 1.1789,-0.11973 0.36841,-0.0553 0.69997,-0.1228 0.99469,-0.20262 0.29472,-0.0798 0.51577,-0.17499 0.66313,-0.28551 0.29472,0.81049 0.64471,1.5166 1.04996,2.11833 0.40525,0.60173 0.90873,1.09908 1.51046,1.49204 0.45437,-0.19648 0.83198,-0.44823 1.13285,-0.75523 0.30086,-0.307 0.54954,-0.62936 0.74602,-0.96706 0.19648,-0.3377 0.34692,-0.67234 0.4513,-1.0039 0.10438,-0.33156 0.18727,-0.62629 0.24867,-0.88417 0.15964,0.0982 0.40218,0.18727 0.7276,0.26709 0.32542,0.0798 0.69997,0.14736 1.12364,0.20262 0.42367,0.0553 0.87496,0.0982 1.35389,0.12894 0.47893,0.0307 0.94557,0.0461 1.39994,0.0461 0.40525,0 0.81663,-0.0123 1.23416,-0.0368 0.41753,-0.0246 0.81049,-0.0645 1.1789,-0.11973 0.36841,-0.0553 0.69997,-0.1228 0.99469,-0.20262 0.29472,-0.0798 0.51577,-0.17499 0.66313,-0.28551 0.39297,1.04382 0.88724,1.92799 1.48283,2.65252 0.59559,0.72453 1.39073,1.23416 2.38542,1.52888 -0.19648,0.2456 -0.36841,0.50963 -0.51577,0.79207 -0.14736,0.28244 -0.27323,0.6048 -0.37762,0.96706 -0.10438,0.36227 -0.18113,0.77672 -0.23025,1.24337 -0.0491,0.46665 -0.0737,1.00697 -0.0737,1.62098 v 4.14456 c 0,0.44209 0.0522,0.80435 0.15657,1.0868 0.10438,0.28244 0.28244,0.50042 0.53419,0.65392 0.25174,0.1535 0.57717,0.26095 0.97627,0.32235 0.39911,0.0614 0.89338,0.0921 1.48283,0.0921 -0.0368,0.14736 -0.0737,0.30086 -0.11052,0.46051 -0.0368,0.15964 -0.0675,0.34077 -0.0921,0.5434 -0.0246,0.20262 -0.046,0.43595 -0.0645,0.69997 -0.0184,0.26402 -0.0276,0.5741 -0.0276,0.93022 0,0.35613 0.0215,0.74295 0.0645,1.16048 0.043,0.41753 0.11973,0.74909 0.23025,0.99469 -0.38069,-0.0614 -0.82277,-0.11973 -1.32626,-0.17499 -0.50349,-0.0553 -1.04075,-0.10438 -1.61177,-0.14736 -0.57103,-0.043 -1.16969,-0.0768 -1.79598,-0.10131 -0.62629,-0.0246 -1.25258,-0.0368 -1.87887,-0.0368 -0.50349,0 -1.02232,0.009 -1.55651,0.0276 -0.53419,0.0184 -1.05303,0.0491 -1.55651,0.0921 -0.50349,0.043 -0.9732,0.0921 -1.40915,0.14736 -0.43595,0.0553 -0.80128,0.11973 -1.09601,0.19341 0.0368,-0.14736 0.0706,-0.31928 0.10131,-0.51577 0.0307,-0.19648 0.0553,-0.41139 0.0737,-0.64471 0.0184,-0.23332 0.0338,-0.47279 0.0461,-0.71839 0.0123,-0.2456 0.0184,-0.47893 0.0184,-0.69997 0,-0.1228 -0.006,-0.28858 -0.0184,-0.49735 -0.0123,-0.20876 -0.0276,-0.4206 -0.0461,-0.6355 -0.0184,-0.2149 -0.043,-0.4206 -0.0737,-0.61708 -0.0307,-0.19648 -0.0645,-0.34999 -0.10131,-0.46051 0.41753,0 0.76444,-0.0215 1.04075,-0.0645 0.2763,-0.043 0.50042,-0.13815 0.67234,-0.28551 0.17192,-0.14736 0.29472,-0.36534 0.36841,-0.65392 0.0737,-0.28858 0.11052,-0.67234 0.11052,-1.15127 v -3.83142 c 0,-0.47893 -0.0491,-0.93329 -0.14736,-1.3631 -0.0982,-0.42981 -0.24867,-0.80742 -0.4513,-1.13285 -0.20262,-0.32542 -0.46358,-0.58331 -0.78286,-0.77365 -0.31928,-0.19034 -0.70611,-0.28551 -1.16048,-0.28551 -0.25788,0 -0.59559,0.0368 -1.01311,0.11052 -0.41753,0.0737 -0.84426,0.19955 -1.28021,0.37762 -0.43595,0.17806 -0.84426,0.41139 -1.22495,0.69997 -0.38069,0.28858 -0.66313,0.64778 -0.84733,1.07759 -0.0123,0.15964 -0.0184,0.31928 -0.0184,0.47893 0,0.15964 0,0.32542 0,0.49735 v 4.14456 c 0,0.44209 0.0522,0.80435 0.15657,1.0868 0.10438,0.28244 0.28244,0.50042 0.53419,0.65392 0.25174,0.1535 0.57717,0.26095 0.97627,0.32235 0.39911,0.0614 0.89338,0.0921 1.48283,0.0921 -0.0368,0.14736 -0.0737,0.30086 -0.11052,0.46051 -0.0368,0.15964 -0.0675,0.34077 -0.0921,0.5434 -0.0246,0.20262 -0.0461,0.43595 -0.0645,0.69997 -0.0184,0.26402 -0.0276,0.5741 -0.0276,0.93022 0,0.35613 0.0215,0.74295 0.0645,1.16048 0.043,0.41753 0.11973,0.74909 0.23025,0.99469 -0.38069,-0.0614 -0.82277,-0.11973 -1.32626,-0.17499 -0.50349,-0.0553 -1.04075,-0.10438 -1.61177,-0.14736 -0.57103,-0.043 -1.16969,-0.0768 -1.79598,-0.10131 -0.62629,-0.0246 -1.25258,-0.0368 -1.87887,-0.0368 -0.50349,0 -1.02232,0.009 -1.55651,0.0276 -0.53419,0.0184 -1.05303,0.0491 -1.55651,0.0921 -0.50349,0.043 -0.9732,0.0921 -1.40915,0.14736 -0.43595,0.0553 -0.80128,0.11973 -1.09601,0.19341 0.0368,-0.14736 0.0706,-0.31928 0.10131,-0.51577 0.0307,-0.19648 0.0553,-0.41139 0.0737,-0.64471 0.0184,-0.23332 0.0338,-0.47279 0.0461,-0.71839 0.0123,-0.2456 0.0184,-0.47893 0.0184,-0.69997 0,-0.1228 -0.006,-0.28858 -0.0184,-0.49735 -0.0123,-0.20876 -0.0276,-0.4206 -0.0461,-0.6355 -0.0184,-0.2149 -0.043,-0.4206 -0.0737,-0.61708 -0.0307,-0.19648 -0.0645,-0.34999 -0.10131,-0.46051 0.41753,0 0.76444,-0.0215 1.04075,-0.0645 0.2763,-0.043 0.50042,-0.13815 0.67234,-0.28551 0.17192,-0.14736 0.29472,-0.36534 0.36841,-0.65392 0.0737,-0.28858 0.11052,-0.67234 0.11052,-1.15127 v -3.83142 c 0,-0.47893 -0.0491,-0.93329 -0.14736,-1.3631 -0.0982,-0.42981 -0.24867,-0.80742 -0.4513,-1.13285 -0.20262,-0.32542 -0.46358,-0.58331 -0.78286,-0.77365 -0.31928,-0.19034 -0.70611,-0.28551 -1.16048,-0.28551 -0.25788,0 -0.60173,0.0399 -1.03154,0.11973 -0.42981,0.0798 -0.86575,0.21183 -1.30784,0.39604 -0.44209,0.1842 -0.85347,0.42674 -1.23416,0.7276 -0.38069,0.30086 -0.65699,0.67234 -0.82891,1.11443 l 0.0184,5.02873 c 0,0.79821 0.2456,1.35696 0.73681,1.67624 0.49121,0.31928 1.1789,0.47893 2.06307,0.47893 -0.0737,0.25788 -0.13201,0.57717 -0.17499,0.95785 -0.043,0.38069 -0.0645,0.78593 -0.0645,1.21574 0,0.46665 0.0184,0.93636 0.0553,1.40915 0.0368,0.47279 0.0982,0.87496 0.1842,1.20653 -0.78593,-0.1228 -1.71923,-0.23025 -2.79988,-0.32235 -1.08066,-0.0921 -2.40078,-0.13815 -3.96036,-0.13815 -0.58945,0 -1.19425,0.009 -1.8144,0.0276 -0.62015,0.0184 -1.21574,0.0491 -1.78677,0.0921 -0.57103,0.043 -1.10215,0.0921 -1.59335,0.14736 -0.49121,0.0553 -0.89645,0.11973 -1.21574,0.19341 z"
               data-paper-data="{&quot;elementType&quot;:&quot;letter&quot;,&quot;baseline&quot;:52.734375,&quot;baselineProportion&quot;:1,&quot;fontSize&quot;:100}"
               id="path6" />
            <path
               d="m 173.30131,357.5105 c 0.0982,-0.31928 0.16578,-0.69997 0.20262,-1.14206 0.0368,-0.44209 0.0553,-0.87803 0.0553,-1.30784 0,-0.39297 -0.0246,-0.78593 -0.0737,-1.1789 -0.0491,-0.39297 -0.11052,-0.77979 -0.1842,-1.16048 0.68769,0 1.29249,-0.0307 1.8144,-0.0921 0.52191,-0.0614 0.95785,-0.16885 1.30784,-0.32235 0.34999,-0.1535 0.61401,-0.37148 0.79207,-0.65392 0.17806,-0.28244 0.26709,-0.64471 0.26709,-1.0868 v -5.12084 c -0.0123,-0.52805 -0.10745,-0.94864 -0.28551,-1.26179 -0.17806,-0.31314 -0.41446,-0.55261 -0.70918,-0.71839 -0.29472,-0.16578 -0.6355,-0.2763 -1.02232,-0.33156 -0.38683,-0.0553 -0.79514,-0.0829 -1.22495,-0.0829 h -0.58945 c 0.0982,-0.2456 0.1842,-0.58638 0.25788,-1.02232 0.0737,-0.43595 0.11052,-0.89338 0.11052,-1.37231 0,-0.46665 -0.0338,-0.91794 -0.10131,-1.35389 -0.0675,-0.43595 -0.15657,-0.78286 -0.26709,-1.04075 1.04382,0.0491 2.01702,0.086 2.91961,0.11052 0.90259,0.0246 1.753,0.0368 2.55121,0.0368 1.4859,0 2.76918,-0.0583 3.84984,-0.17499 1.08066,-0.11666 2.00781,-0.32235 2.78146,-0.61708 -0.2456,0.47893 -0.46051,0.93636 -0.64471,1.37231 -0.1842,0.43595 -0.34077,0.89645 -0.46972,1.38152 -0.12894,0.48507 -0.22718,1.01618 -0.29472,1.59335 -0.0675,0.57717 -0.10131,1.2403 -0.10131,1.98939 l -0.0184,6.61288 c 0,0.44209 0.0952,0.80435 0.28551,1.0868 0.19034,0.28244 0.4513,0.50042 0.78286,0.65392 0.33156,0.1535 0.72453,0.26095 1.1789,0.32235 0.45437,0.0614 0.94557,0.0921 1.47362,0.0921 -0.0737,0.25788 -0.13201,0.57717 -0.17499,0.95785 -0.043,0.38069 -0.0645,0.78593 -0.0645,1.21574 0,0.46665 0.0153,0.93636 0.046,1.40915 0.0307,0.47279 0.0952,0.87496 0.19341,1.20653 -0.33156,-0.0614 -0.78593,-0.11973 -1.3631,-0.17499 -0.57717,-0.0553 -1.20653,-0.10438 -1.88808,-0.14736 -0.68155,-0.043 -1.3938,-0.0768 -2.13675,-0.10131 -0.74295,-0.0246 -1.44599,-0.0368 -2.10912,-0.0368 -0.58945,0 -1.23109,0.009 -1.92492,0.0276 -0.69383,0.0184 -1.37538,0.0491 -2.04465,0.0921 -0.66927,0.043 -1.28635,0.0921 -1.85124,0.14736 -0.56489,0.0553 -1.00697,0.11973 -1.32626,0.19341 z m 1.47362,-21.82802 c 0.0737,-0.13508 0.14429,-0.3377 0.21183,-0.60787 0.0675,-0.27016 0.1228,-0.58331 0.16578,-0.93943 0.043,-0.35613 0.0798,-0.73988 0.11052,-1.15127 0.0307,-0.41139 0.0461,-0.83198 0.0461,-1.26179 0,-0.39297 -0.0154,-0.77672 -0.0461,-1.15127 -0.0307,-0.37455 -0.0706,-0.72453 -0.11973,-1.04996 -0.0491,-0.32542 -0.10745,-0.61708 -0.17499,-0.87496 -0.0675,-0.25788 -0.13815,-0.46051 -0.21183,-0.60787 0.22104,0.0737 0.5127,0.14429 0.87496,0.21183 0.36227,0.0675 0.76751,0.12587 1.21574,0.17499 0.44823,0.0491 0.92101,0.089 1.41836,0.11973 0.49735,0.0307 0.98548,0.0461 1.46441,0.0461 0.44209,0 0.92408,-0.009 1.44599,-0.0276 0.52191,-0.0184 1.0254,-0.0522 1.51046,-0.10131 0.48507,-0.0491 0.92408,-0.10745 1.31705,-0.17499 0.39297,-0.0675 0.68769,-0.15043 0.88417,-0.24867 -0.0737,0.15964 -0.13815,0.36841 -0.19341,0.62629 -0.0553,0.25788 -0.10438,0.54954 -0.14736,0.87496 -0.043,0.32542 -0.0737,0.67541 -0.0921,1.04996 -0.0184,0.37455 -0.0276,0.75216 -0.0276,1.13285 0,0.39297 0.009,0.77979 0.0276,1.16048 0.0184,0.38069 0.0491,0.74602 0.0921,1.09601 0.043,0.34999 0.0921,0.67234 0.14736,0.96706 0.0553,0.29472 0.11973,0.54033 0.19341,0.73681 -0.19648,-0.0614 -0.482,-0.11359 -0.85654,-0.15657 -0.37455,-0.043 -0.79821,-0.0798 -1.271,-0.11052 -0.47279,-0.0307 -0.96706,-0.0553 -1.48283,-0.0737 -0.51577,-0.0184 -1.01311,-0.0276 -1.49204,-0.0276 -0.47893,0 -0.97013,0.009 -1.47362,0.0276 -0.50349,0.0184 -0.98548,0.043 -1.44599,0.0737 -0.46051,0.0307 -0.87496,0.0675 -1.24337,0.11052 -0.36841,0.043 -0.65085,0.0952 -0.84733,0.15657"
               data-paper-data="{&quot;elementType&quot;:&quot;letter&quot;,&quot;baseline&quot;:78.125,&quot;baselineProportion&quot;:1,&quot;fontSize&quot;:100}"
               id="path8" />
            <path
               d="m 197.24634,357.10526 c 0.0982,-0.25788 0.17499,-0.64778 0.23025,-1.16969 0.0553,-0.52191 0.0829,-1.10215 0.0829,-1.74072 0,-0.51577 -0.0307,-1.03768 -0.0921,-1.56572 -0.0614,-0.52805 -0.13508,-0.95785 -0.22104,-1.28942 0.14736,0.0737 0.3592,0.13815 0.6355,0.19341 0.2763,0.0553 0.58331,0.10438 0.92101,0.14736 0.3377,0.043 0.69383,0.0737 1.06838,0.0921 0.37455,0.0184 0.73374,0.0276 1.07759,0.0276 0.66313,0 1.28021,-0.0399 1.85124,-0.11973 0.57103,-0.0798 1.02847,-0.19341 1.37231,-0.34077 0,0.35613 0.0522,0.69076 0.15657,1.0039 0.10438,0.31314 0.27016,0.58945 0.49735,0.82891 0.22718,0.23946 0.52191,0.42981 0.88417,0.57103 0.36227,0.14122 0.79514,0.21183 1.29863,0.21183 0.66313,0 1.19425,-0.12894 1.59335,-0.38683 0.39911,-0.25788 0.59866,-0.68155 0.59866,-1.271 0,-0.46665 -0.15657,-0.87189 -0.46972,-1.21574 -0.31314,-0.34385 -0.74909,-0.62936 -1.30784,-0.85654 -0.55875,-0.22718 -1.22495,-0.39604 -1.9986,-0.50656 -0.77365,-0.11052 -1.61484,-0.16578 -2.52358,-0.16578 -0.28244,0 -0.59252,0.003 -0.93022,0.009 -0.3377,0.006 -0.6662,0.0215 -0.98548,0.046 -0.31928,0.0246 -0.61094,0.0583 -0.87496,0.10131 -0.26402,0.043 -0.45744,0.0952 -0.58024,0.15657 0,-0.31928 -0.11359,-0.65699 -0.34077,-1.01311 -0.22718,-0.35613 -0.50042,-0.68769 -0.8197,-0.99469 -0.31928,-0.307 -0.65392,-0.57103 -1.0039,-0.79207 -0.34999,-0.22104 -0.64778,-0.35613 -0.89338,-0.40525 0.0982,-0.11052 0.1842,-0.26402 0.25788,-0.46051 0.0737,-0.19648 0.13508,-0.4206 0.1842,-0.67234 0.0491,-0.25174 0.086,-0.51577 0.11052,-0.79207 0.0246,-0.2763 0.0368,-0.5434 0.0368,-0.80128 0,-0.55261 -0.0461,-1.09601 -0.13815,-1.63019 -0.0921,-0.53419 -0.24253,-0.96092 -0.4513,-1.28021 0.44209,-0.086 0.88417,-0.23639 1.32626,-0.4513 0.44209,-0.2149 0.85654,-0.47279 1.24337,-0.77365 0.38683,-0.30086 0.73067,-0.63857 1.03154,-1.01311 0.30086,-0.37455 0.52498,-0.76444 0.67234,-1.16969 0.1228,0.0737 0.36841,0.14736 0.73681,0.22104 0.36841,0.0737 0.80435,0.14122 1.30784,0.20262 0.50349,0.0614 1.04382,0.11052 1.62098,0.14736 0.57717,0.0368 1.13592,0.0553 1.67624,0.0553 0.99469,0 1.78677,-0.086 2.37621,-0.25788 0.58945,-0.17192 0.96399,-0.41753 1.12364,-0.73681 0.17192,0.23332 0.43288,0.43902 0.78286,0.61708 0.34999,0.17806 0.73681,0.32542 1.16048,0.44209 0.42367,0.11666 0.86268,0.20262 1.31705,0.25788 0.45437,0.0553 0.88417,0.0829 1.28942,0.0829 0.2456,0 0.46972,-0.0123 0.67234,-0.0368 0.20262,-0.0246 0.38376,-0.0553 0.5434,-0.0921 -0.0368,0.25788 -0.0706,0.49428 -0.10131,0.70918 -0.0307,0.2149 -0.0553,0.42367 -0.0737,0.62629 -0.0184,0.20262 -0.0338,0.40832 -0.0461,0.61708 -0.0123,0.20876 -0.0184,0.43595 -0.0184,0.68155 0,0.46665 0.0153,0.92715 0.046,1.38152 0.0307,0.45437 0.0952,0.85961 0.19341,1.21574 -0.20876,-0.13508 -0.56182,-0.23025 -1.05917,-0.28551 -0.49735,-0.0553 -1.05917,-0.0829 -1.68545,-0.0829 -0.34385,0 -0.6969,0.009 -1.05917,0.0276 -0.36227,0.0184 -0.69997,0.043 -1.01311,0.0737 -0.31314,0.0307 -0.58945,0.0675 -0.82891,0.11052 -0.23946,0.043 -0.40832,0.0952 -0.50656,0.15657 0,-0.81049 -0.28244,-1.44599 -0.84733,-1.9065 -0.56489,-0.46051 -1.31398,-0.69076 -2.24727,-0.69076 -0.77365,0 -1.31705,0.13815 -1.63019,0.41446 -0.31314,0.2763 -0.46972,0.62322 -0.46972,1.04075 0,0.40525 0.20569,0.79207 0.61708,1.16048 0.41139,0.36841 0.95478,0.69076 1.63019,0.96706 0.67541,0.2763 1.43678,0.49428 2.28411,0.65392 0.84733,0.15964 1.71309,0.23946 2.59726,0.23946 0.22104,0 0.44516,-0.006 0.67234,-0.0184 0.22718,-0.0123 0.44516,-0.0307 0.65392,-0.0553 0.20876,-0.0246 0.40218,-0.0583 0.58024,-0.10131 0.17806,-0.043 0.32235,-0.0952 0.43288,-0.15657 0.0368,0.36841 0.17499,0.73067 0.41446,1.0868 0.23946,0.35613 0.52191,0.68769 0.84733,0.99469 0.32542,0.307 0.65699,0.5741 0.99469,0.80128 0.3377,0.22718 0.62936,0.3899 0.87496,0.48814 -0.15964,0.2456 -0.28551,0.61708 -0.37762,1.11443 -0.0921,0.49735 -0.13815,1.02847 -0.13815,1.59335 0,0.51577 0.0368,1.01004 0.11052,1.48283 0.0737,0.47279 0.20876,0.84426 0.40525,1.11443 -0.44209,0.1228 -0.87496,0.28858 -1.29863,0.49735 -0.42367,0.20876 -0.8197,0.45437 -1.18811,0.73681 -0.36841,0.28244 -0.70304,0.59866 -1.0039,0.94864 -0.30086,0.34999 -0.5434,0.7276 -0.7276,1.13285 -0.49121,-0.17192 -1.1789,-0.31928 -2.06307,-0.44209 -0.88417,-0.1228 -1.90343,-0.1842 -3.05776,-0.1842 -0.51577,0 -0.95785,0.0184 -1.32626,0.0553 -0.36841,0.0368 -0.68155,0.089 -0.93943,0.15657 -0.25788,0.0675 -0.47279,0.15043 -0.64471,0.24867 -0.17192,0.0982 -0.31314,0.2149 -0.42367,0.34999 -0.1842,-0.11052 -0.41446,-0.20569 -0.69076,-0.28551 -0.2763,-0.0798 -0.58331,-0.14429 -0.92101,-0.19341 -0.3377,-0.0491 -0.68769,-0.086 -1.04996,-0.11052 -0.36227,-0.0246 -0.71532,-0.0368 -1.05917,-0.0368 -0.62629,0 -1.19732,0.0123 -1.71309,0.0368 -0.51577,0.0246 -0.93329,0.0982 -1.25258,0.22104 z"
               data-paper-data="{&quot;elementType&quot;:&quot;letter&quot;,&quot;baseline&quot;:53.7109375,&quot;baselineProportion&quot;:1.0018214936247722,&quot;fontSize&quot;:100}"
               id="path10" />
            <path
               d="m 226.25693,354.45274 c 0.13508,-0.19648 0.26402,-0.44823 0.38683,-0.75523 0.1228,-0.307 0.23025,-0.70918 0.32235,-1.20653 0.0921,-0.49735 0.16578,-1.11136 0.22104,-1.84203 0.0553,-0.73067 0.0829,-1.62405 0.0829,-2.68015 0,-1.10522 -0.0276,-2.00167 -0.0829,-2.68936 -0.0553,-0.68769 -0.12894,-1.24951 -0.22104,-1.68545 -0.0921,-0.43595 -0.19955,-0.789 -0.32235,-1.05917 -0.1228,-0.27016 -0.2456,-0.53419 -0.36841,-0.79207 0.49121,-0.0491 1.04996,-0.19341 1.67624,-0.43288 0.62629,-0.23946 1.23109,-0.5434 1.8144,-0.9118 0.58331,-0.36841 1.10215,-0.79207 1.55651,-1.271 0.45437,-0.47893 0.75523,-0.98241 0.90259,-1.51046 0.22104,0.0982 0.54033,0.18727 0.95785,0.26709 0.41753,0.0798 0.90259,0.14736 1.4552,0.20262 0.55261,0.0553 1.15434,0.0982 1.80519,0.12894 0.65085,0.0307 1.32626,0.046 2.02623,0.046 0.63857,0 1.25872,-0.0215 1.86045,-0.0645 0.60173,-0.043 1.15434,-0.0952 1.65782,-0.15657 0.50349,-0.0614 0.93943,-0.12894 1.30784,-0.20262 0.36841,-0.0737 0.64471,-0.14736 0.82891,-0.22104 0.14736,0.52805 0.45437,1.03154 0.92101,1.51046 0.46665,0.47893 0.99776,0.90259 1.59335,1.271 0.59559,0.36841 1.20346,0.67234 1.82361,0.9118 0.62015,0.23946 1.15741,0.38376 1.61177,0.43288 -0.1228,0.2456 -0.24253,0.50042 -0.3592,0.76444 -0.11666,0.26402 -0.22104,0.61401 -0.31314,1.04996 -0.0921,0.43595 -0.16578,0.99469 -0.22104,1.67624 -0.0553,0.68155 -0.0829,1.56265 -0.0829,2.64331 0,1.06838 0.0184,1.97404 0.0553,2.71699 0.0368,0.74295 0.0921,1.36617 0.16578,1.86966 0.0737,0.50349 0.17499,0.90873 0.30393,1.21574 0.12894,0.307 0.28551,0.56489 0.46972,0.77365 -0.307,0 -0.65699,0.046 -1.04996,0.13815 -0.39297,0.0921 -0.80128,0.2149 -1.22495,0.36841 -0.42367,0.1535 -0.84119,0.33463 -1.25258,0.5434 -0.41139,0.20876 -0.789,0.43288 -1.13285,0.67234 -0.34385,0.23946 -0.63857,0.48814 -0.88417,0.74602 -0.2456,0.25788 -0.41139,0.51577 -0.49735,0.77365 -0.23332,-0.086 -0.54647,-0.16578 -0.93943,-0.23946 -0.39297,-0.0737 -0.84733,-0.14122 -1.3631,-0.20262 -0.51577,-0.0614 -1.08066,-0.11052 -1.69466,-0.14736 -0.61401,-0.0368 -1.25872,-0.0553 -1.93413,-0.0553 -0.66313,0 -1.29863,0.0184 -1.9065,0.0553 -0.60787,0.0368 -1.16662,0.0829 -1.67624,0.13815 -0.50963,0.0553 -0.95785,0.1228 -1.34468,0.20262 -0.38683,0.0798 -0.68462,0.16271 -0.89338,0.24867 -0.20876,-0.45437 -0.55875,-0.87803 -1.04996,-1.271 -0.49121,-0.39297 -1.03154,-0.73681 -1.62098,-1.03154 -0.58945,-0.29472 -1.18811,-0.52498 -1.79598,-0.69076 -0.60787,-0.16578 -1.13285,-0.24867 -1.57493,-0.24867 m 8.38125,-6.55762 c 0,1.04382 0.0645,1.94027 0.19341,2.68936 0.12894,0.74909 0.34077,1.3631 0.6355,1.84203 0.29472,0.47893 0.67541,0.83198 1.14206,1.05917 0.46665,0.22718 1.03768,0.34077 1.71309,0.34077 0.71225,0 1.29556,-0.15043 1.74993,-0.4513 0.45437,-0.30086 0.81049,-0.71532 1.06838,-1.24337 0.25788,-0.52805 0.43595,-1.15434 0.53419,-1.87887 0.0982,-0.72453 0.14736,-1.51046 0.14736,-2.35779 0,-0.84733 -0.0491,-1.63019 -0.14736,-2.34858 -0.0982,-0.71839 -0.2763,-1.33854 -0.53419,-1.86045 -0.25788,-0.52191 -0.61401,-0.92715 -1.06838,-1.21574 -0.45437,-0.28858 -1.03768,-0.43288 -1.74993,-0.43288 -0.67541,0 -1.24644,0.11052 -1.71309,0.33156 -0.46665,0.22104 -0.84733,0.56796 -1.14206,1.04075 -0.29472,0.47279 -0.50656,1.07759 -0.6355,1.8144 -0.12894,0.73681 -0.19341,1.62712 -0.19341,2.67094 z"
               data-paper-data="{&quot;elementType&quot;:&quot;letter&quot;,&quot;baseline&quot;:52.734375,&quot;baselineProportion&quot;:0.9908256880733946,&quot;fontSize&quot;:100}"
               id="path12" />
            <path
               d="m 261.47517,357.5105 c 0.0982,-0.31928 0.16578,-0.69997 0.20262,-1.14206 0.0368,-0.44209 0.0553,-0.87803 0.0553,-1.30784 0,-0.39297 -0.0246,-0.78593 -0.0737,-1.1789 -0.0491,-0.39297 -0.11052,-0.77979 -0.1842,-1.16048 0.68769,0 1.25565,-0.0307 1.70387,-0.0921 0.44823,-0.0614 0.80742,-0.16885 1.07759,-0.32235 0.27016,-0.1535 0.45744,-0.37148 0.56182,-0.65392 0.10438,-0.28244 0.15657,-0.64471 0.15657,-1.0868 v -5.87607 c 0,-0.307 -0.0276,-0.55568 -0.0829,-0.74602 -0.0553,-0.19034 -0.15043,-0.34077 -0.28551,-0.4513 -0.13508,-0.11052 -0.31314,-0.1842 -0.53419,-0.22104 -0.22104,-0.0368 -0.49735,-0.0553 -0.82891,-0.0553 -0.1842,0 -0.38376,0.0123 -0.59866,0.0368 -0.2149,0.0246 -0.45744,0.0614 -0.7276,0.11052 0.0614,-0.35613 0.10438,-0.74295 0.12894,-1.16048 0.0246,-0.41753 0.0368,-0.84119 0.0368,-1.271 0,-0.39297 -0.0123,-0.77979 -0.0368,-1.16048 -0.0246,-0.38069 -0.0675,-0.73067 -0.12894,-1.04996 0.52805,0.0737 0.97627,0.11052 1.34468,0.11052 0.29472,0 0.54647,-0.0123 0.75523,-0.0368 0.20876,-0.0246 0.37762,-0.0829 0.50656,-0.17499 0.12894,-0.0921 0.22411,-0.22718 0.28551,-0.40525 0.0614,-0.17806 0.0921,-0.42674 0.0921,-0.74602 0,-0.58945 -0.0276,-1.18811 -0.0829,-1.79598 -0.0553,-0.60787 -0.13508,-1.18197 -0.23946,-1.7223 -0.10438,-0.54033 -0.22104,-1.02232 -0.34999,-1.44599 -0.12894,-0.42367 -0.26709,-0.73988 -0.41446,-0.94864 0.40525,-0.0491 0.83812,-0.2149 1.29863,-0.49735 0.46051,-0.28244 0.89645,-0.62015 1.30784,-1.01311 0.41139,-0.39297 0.76444,-0.81049 1.05917,-1.25258 0.29472,-0.44209 0.47893,-0.84733 0.55261,-1.21574 0.27016,0.1842 0.70611,0.307 1.30784,0.36841 0.60173,0.0614 1.25258,0.0921 1.95255,0.0921 1.08066,0 1.97711,-0.11666 2.68936,-0.34999 0.71225,-0.23332 1.25872,-0.54647 1.6394,-0.93943 0.17192,0.23332 0.40525,0.44823 0.69997,0.64471 0.29472,0.19648 0.63243,0.36534 1.01311,0.50656 0.38069,0.14122 0.79207,0.25174 1.23416,0.33156 0.44209,0.0798 0.89645,0.11973 1.3631,0.11973 0.65085,0 1.13592,-0.0276 1.4552,-0.0829 0.31928,-0.0553 0.57103,-0.10745 0.75523,-0.15657 -0.14736,0.39297 -0.26095,0.92715 -0.34077,1.60256 -0.0798,0.67541 -0.11973,1.35696 -0.11973,2.04465 0,0.36841 0.009,0.73988 0.0276,1.11443 0.0184,0.37455 0.0491,0.7276 0.0921,1.05917 0.043,0.33156 0.0921,0.62936 0.14736,0.89338 0.0553,0.26402 0.11973,0.46972 0.19341,0.61708 -0.307,-0.14736 -0.71225,-0.25481 -1.21574,-0.32235 -0.50349,-0.0675 -1.10522,-0.10131 -1.80519,-0.10131 -0.69997,0 -1.32012,0.0338 -1.86045,0.10131 -0.54033,0.0675 -0.99469,0.17499 -1.3631,0.32235 0,-1.46134 -0.13201,-2.52665 -0.39604,-3.19592 -0.26402,-0.66927 -0.77672,-1.0039 -1.53809,-1.0039 -0.68769,0 -1.21574,0.25788 -1.58414,0.77365 -0.36841,0.51577 -0.55261,1.37538 -0.55261,2.57884 v 2.4499 c 0,0.307 0.0368,0.5741 0.11052,0.80128 0.0737,0.22718 0.22411,0.41753 0.4513,0.57103 0.22718,0.1535 0.54647,0.26709 0.95785,0.34077 0.41139,0.0737 0.96092,0.11052 1.64861,0.11052 0.88417,0 2.06307,-0.11052 3.53669,-0.33156 -0.0614,0.31928 -0.10438,0.69383 -0.12894,1.12364 -0.0246,0.42981 -0.0368,0.87189 -0.0368,1.32626 0,1.04382 0.0553,1.91571 0.16578,2.61568 -0.77365,-0.086 -1.44906,-0.14736 -2.02623,-0.1842 -0.57717,-0.0368 -1.09294,-0.0553 -1.5473,-0.0553 -0.69997,0 -1.25565,0.0154 -1.66703,0.046 -0.41139,0.0307 -0.72453,0.0952 -0.93943,0.19341 -0.2149,0.0982 -0.35306,0.23946 -0.41446,0.42367 -0.0614,0.1842 -0.0921,0.42981 -0.0921,0.73681 v 5.80239 c 0,0.44209 0.16578,0.80435 0.49735,1.0868 0.33156,0.28244 0.76444,0.50042 1.29863,0.65392 0.53419,0.1535 1.14513,0.26095 1.83282,0.32235 0.68769,0.0614 1.3938,0.0921 2.11833,0.0921 -0.0737,0.25788 -0.13201,0.57717 -0.17499,0.95785 -0.043,0.38069 -0.0645,0.78593 -0.0645,1.21574 0,0.46665 0.0184,0.93636 0.0553,1.40915 0.0368,0.47279 0.0982,0.87496 0.1842,1.20653 -0.39297,-0.0614 -0.94557,-0.11973 -1.65782,-0.17499 -0.71225,-0.0553 -1.49511,-0.10438 -2.34858,-0.14736 -0.85347,-0.043 -1.73151,-0.0768 -2.6341,-0.10131 -0.90259,-0.0246 -1.74072,-0.0368 -2.51437,-0.0368 -0.58945,0 -1.22188,0.009 -1.89729,0.0276 -0.67541,0.0184 -1.33547,0.0491 -1.98018,0.0921 -0.64471,0.043 -1.2403,0.0921 -1.78677,0.14736 -0.54647,0.0553 -0.97934,0.11973 -1.29863,0.19341 z"
               data-paper-data="{&quot;elementType&quot;:&quot;letter&quot;,&quot;baseline&quot;:81.54296875,&quot;baselineProportion&quot;:1,&quot;fontSize&quot;:100}"
               id="path14" />
            <path
               d="m 292.10675,353.71593 c 0.40525,-0.49121 0.67541,-1.1175 0.81049,-1.87887 0.13508,-0.76137 0.20262,-1.67624 0.20262,-2.74462 v -5.32346 c -0.0123,-0.22104 -0.0461,-0.4206 -0.10131,-0.59866 -0.0553,-0.17806 -0.14736,-0.33156 -0.2763,-0.46051 -0.12894,-0.12894 -0.30393,-0.23025 -0.52498,-0.30393 -0.22104,-0.0737 -0.49735,-0.11052 -0.82891,-0.11052 -0.1842,0 -0.38376,0.0123 -0.59866,0.0368 -0.2149,0.0246 -0.45744,0.0614 -0.7276,0.11052 0.0614,-0.35613 0.10438,-0.74295 0.12894,-1.16048 0.0246,-0.41753 0.0368,-0.84119 0.0368,-1.271 0,-0.39297 -0.0123,-0.77979 -0.0368,-1.16048 -0.0246,-0.38069 -0.0675,-0.73067 -0.12894,-1.04996 0.1228,0.086 0.2763,0.15657 0.46051,0.21183 0.1842,0.0553 0.36841,0.10131 0.55261,0.13815 0.1842,0.0368 0.35613,0.0645 0.51577,0.0829 0.15964,0.0184 0.28244,0.0276 0.36841,0.0276 0.35613,0 0.62322,-0.13815 0.80128,-0.41446 0.17806,-0.2763 0.26709,-0.7583 0.26709,-1.44599 0,-0.11052 -0.003,-0.26402 -0.009,-0.46051 -0.006,-0.19648 -0.0153,-0.39911 -0.0276,-0.60787 -0.0123,-0.20876 -0.0338,-0.40525 -0.0645,-0.58945 -0.0307,-0.1842 -0.0706,-0.32542 -0.11973,-0.42367 0.0982,0.0246 0.19648,0.0368 0.29472,0.0368 0.0982,0 0.20262,0 0.31314,0 0.62629,0 1.28635,-0.10438 1.98018,-0.31314 0.69383,-0.20876 1.36924,-0.43595 2.02623,-0.68155 0.65699,-0.2456 1.26793,-0.47279 1.83282,-0.68155 0.56489,-0.20876 1.03154,-0.31314 1.39994,-0.31314 -0.0982,0.29472 -0.17806,0.62015 -0.23946,0.97627 -0.0614,0.35613 -0.11052,0.71225 -0.14736,1.06838 -0.0368,0.35613 -0.0645,0.70304 -0.0829,1.04075 -0.0184,0.3377 -0.0276,0.62322 -0.0276,0.85654 0,0.40525 0.0491,0.73374 0.14736,0.98548 0.0982,0.25174 0.27323,0.44823 0.52498,0.58945 0.25174,0.14122 0.60173,0.23946 1.04996,0.29472 0.44823,0.0553 1.02232,0.0829 1.7223,0.0829 0.29472,0 0.64164,-0.003 1.04075,-0.009 0.39911,-0.006 0.81356,-0.0246 1.24337,-0.0553 0.42981,-0.0307 0.85654,-0.0768 1.28021,-0.13815 0.42367,-0.0614 0.81356,-0.14736 1.16969,-0.25788 -0.1228,0.31928 -0.20876,0.69383 -0.25788,1.12364 -0.0491,0.42981 -0.0737,0.87189 -0.0737,1.32626 0,0.51577 0.0246,0.99469 0.0737,1.43678 0.0491,0.44209 0.13508,0.83505 0.25788,1.1789 -0.41753,-0.0368 -0.87496,-0.0798 -1.37231,-0.12894 -0.49735,-0.0491 -0.99162,-0.0952 -1.48283,-0.13815 -0.49121,-0.043 -0.94557,-0.0798 -1.3631,-0.11052 -0.41753,-0.0307 -0.75523,-0.0461 -1.01311,-0.0461 -0.61401,0 -1.12057,0.0276 -1.51967,0.0829 -0.39911,0.0553 -0.71532,0.14122 -0.94864,0.25788 -0.23332,0.11666 -0.39604,0.26402 -0.48814,0.44209 -0.0921,0.17806 -0.13815,0.38376 -0.13815,0.61708 v 4.93663 c 0,0.47893 0.0276,0.98548 0.0829,1.51967 0.0553,0.53419 0.15657,1.02847 0.30393,1.48283 0.14736,0.45437 0.34999,0.83198 0.60787,1.13285 0.25788,0.30086 0.58945,0.4513 0.99469,0.4513 0.44209,0 0.81356,-0.089 1.11443,-0.26709 0.30086,-0.17806 0.5434,-0.42674 0.7276,-0.74602 0.1842,-0.31928 0.31621,-0.6969 0.39604,-1.13285 0.0798,-0.43595 0.11973,-0.91794 0.11973,-1.44599 0.27016,0.0614 0.63243,0.1228 1.0868,0.1842 0.45437,0.0614 0.92101,0.0921 1.39994,0.0921 0.46665,0 0.90566,-0.0307 1.31705,-0.0921 0.41139,-0.0614 0.7276,-0.1228 0.94864,-0.1842 -0.0982,0.27016 -0.16885,0.64778 -0.21183,1.13285 -0.043,0.48507 -0.0645,1.0039 -0.0645,1.55651 0,0.55261 0.0184,1.06838 0.0553,1.5473 0.0368,0.47893 0.11052,0.83505 0.22104,1.06838 h -0.1842 c -0.45437,0 -0.9425,0.0706 -1.46441,0.21183 -0.52191,0.14122 -1.02232,0.32849 -1.50125,0.56182 -0.47893,0.23332 -0.91794,0.49428 -1.31705,0.78286 -0.39911,0.28858 -0.70304,0.58024 -0.9118,0.87496 -0.0982,-0.0737 -0.28551,-0.13815 -0.56182,-0.19341 -0.2763,-0.0553 -0.59559,-0.10438 -0.95785,-0.14736 -0.36227,-0.043 -0.74602,-0.0737 -1.15127,-0.0921 -0.40525,-0.0184 -0.79207,-0.0276 -1.16048,-0.0276 -0.36841,0 -0.75216,0.009 -1.15127,0.0276 -0.39911,0.0184 -0.789,0.0491 -1.16969,0.0921 -0.38069,0.043 -0.7276,0.0921 -1.04075,0.14736 -0.31314,0.0553 -0.56182,0.11973 -0.74602,0.19341 -0.11052,-0.42981 -0.27937,-0.8504 -0.50656,-1.26179 -0.22718,-0.41139 -0.50042,-0.789 -0.8197,-1.13285 -0.31928,-0.34385 -0.67848,-0.63857 -1.07759,-0.88417 -0.39911,-0.2456 -0.82584,-0.41753 -1.28021,-0.51577 z"
               data-paper-data="{&quot;elementType&quot;:&quot;letter&quot;,&quot;baseline&quot;:66.650390625,&quot;baselineProportion&quot;:1,&quot;fontSize&quot;:100}"
               id="path16" />
            <path
               d="m 326.53291,357.5105 c 0.0123,-0.086 0.0215,-0.18727 0.0276,-0.30393 0.006,-0.11666 0.009,-0.22411 0.009,-0.32235 0,-0.52805 -0.0737,-1.16048 -0.22104,-1.89729 -0.14736,-0.73681 -0.42367,-1.53502 -0.82891,-2.39464 -0.41753,-0.88417 -0.85654,-1.58414 -1.31705,-2.09991 -0.46051,-0.51577 -0.9118,-0.84119 -1.35389,-0.97627 0.20876,-0.0737 0.31314,-0.27016 0.31314,-0.58945 0,-0.15964 -0.009,-0.37762 -0.0276,-0.65392 -0.0184,-0.2763 -0.0737,-0.59559 -0.16578,-0.95785 -0.0921,-0.36227 -0.23639,-0.7583 -0.43288,-1.18811 -0.19648,-0.42981 -0.47279,-0.87803 -0.82891,-1.34468 -0.20876,-0.27016 -0.47586,-0.53419 -0.80128,-0.79207 -0.32542,-0.25788 -0.67234,-0.49121 -1.04075,-0.69997 -0.36841,-0.20876 -0.74295,-0.37762 -1.12364,-0.50656 -0.38069,-0.12894 -0.73067,-0.19341 -1.04996,-0.19341 0.0614,-0.35613 0.11359,-0.74602 0.15657,-1.16969 0.043,-0.42367 0.0645,-0.89338 0.0645,-1.40915 0,-0.88417 -0.0737,-1.62098 -0.22104,-2.21043 0.35613,0.13508 0.96706,0.2456 1.83282,0.33156 0.86575,0.086 2.04158,0.12894 3.52748,0.12894 0.76137,0 1.56572,-0.003 2.41306,-0.009 0.84733,-0.006 1.65475,-0.0246 2.42227,-0.0553 0.76751,-0.0307 1.4552,-0.0768 2.06307,-0.13815 0.60787,-0.0614 1.05917,-0.14736 1.35389,-0.25788 -0.0737,0.307 -0.12894,0.63857 -0.16578,0.99469 -0.0368,0.35613 -0.0553,0.76137 -0.0553,1.21574 0,1.03154 0.0614,1.89115 0.1842,2.57884 -0.88417,0 -1.52581,0.0982 -1.92492,0.29472 -0.39911,0.19648 -0.59866,0.50963 -0.59866,0.93943 0,0.33156 0.10745,0.77672 0.32235,1.33547 0.2149,0.55875 0.482,1.19118 0.80128,1.89729 0.31928,0.70611 0.66006,1.47055 1.02232,2.29332 0.36227,0.82277 0.69076,1.6701 0.98548,2.542 0.307,-0.78593 0.64471,-1.56572 1.01311,-2.33937 0.36841,-0.77365 0.71225,-1.5166 1.03154,-2.22885 0.31928,-0.71225 0.58945,-1.37231 0.81049,-1.98018 0.22104,-0.60787 0.33156,-1.13285 0.33156,-1.57493 0,-0.49121 -0.17806,-0.81049 -0.53419,-0.95785 -0.35613,-0.14736 -0.92101,-0.22104 -1.69466,-0.22104 0.0491,-0.35613 0.089,-0.74602 0.11973,-1.16969 0.0307,-0.42367 0.046,-0.89338 0.046,-1.40915 0,-0.45437 -0.0184,-0.86268 -0.0553,-1.22495 -0.0368,-0.36227 -0.086,-0.69076 -0.14736,-0.98548 0.58945,0.1228 1.28021,0.23025 2.07228,0.32235 0.79207,0.0921 1.71002,0.13815 2.75383,0.13815 1.55958,0 2.82751,-0.046 3.80379,-0.13815 0.97627,-0.0921 1.61791,-0.19955 1.92492,-0.32235 -0.0737,0.307 -0.12894,0.63857 -0.16578,0.99469 -0.0368,0.35613 -0.0553,0.76137 -0.0553,1.21574 0,1.03154 0.0614,1.89115 0.1842,2.57884 -0.54033,0 -0.98241,0.0246 -1.32626,0.0737 -0.34385,0.0491 -0.61708,0.1228 -0.8197,0.22104 -0.20262,0.0982 -0.34385,0.22411 -0.42367,0.37762 -0.0798,0.1535 -0.11973,0.34077 -0.11973,0.56182 0,0.33156 0.10745,0.77672 0.32235,1.33547 0.2149,0.55875 0.482,1.19118 0.80128,1.89729 0.31928,0.70611 0.66006,1.47055 1.02232,2.29332 0.36227,0.82277 0.69076,1.6701 0.98548,2.542 0.307,-0.78593 0.64471,-1.56572 1.01311,-2.33937 0.36841,-0.77365 0.71225,-1.5166 1.03154,-2.22885 0.31928,-0.71225 0.58945,-1.37231 0.81049,-1.98018 0.22104,-0.60787 0.33156,-1.13285 0.33156,-1.57493 0,-0.49121 -0.19955,-0.81049 -0.59866,-0.95785 -0.39911,-0.14736 -0.94864,-0.22104 -1.64861,-0.22104 0.1228,-0.68769 0.1842,-1.5473 0.1842,-2.57884 0,-0.88417 -0.0737,-1.62098 -0.22104,-2.21043 0.15964,0.11052 0.42981,0.19648 0.81049,0.25788 0.38069,0.0614 0.8197,0.10745 1.31705,0.13815 0.49735,0.0307 1.02847,0.0491 1.59335,0.0553 0.56489,0.006 1.10522,0.009 1.62098,0.009 0.45437,0 0.95785,-0.0123 1.51046,-0.0368 0.55261,-0.0246 1.08066,-0.0553 1.58414,-0.0921 0.50349,-0.0368 0.94864,-0.0829 1.33547,-0.13815 0.38683,-0.0553 0.64778,-0.11973 0.78286,-0.19341 -0.0737,0.307 -0.1228,0.63857 -0.14736,0.99469 -0.0246,0.35613 -0.0368,0.76137 -0.0368,1.21574 0,1.03154 0.0614,1.89115 0.1842,2.57884 -0.67541,0 -1.34161,0.20262 -1.9986,0.60787 -0.65699,0.40525 -1.24337,0.97627 -1.75914,1.71309 -0.29472,0.41753 -0.52805,0.82891 -0.69997,1.23416 -0.17192,0.40525 -0.30393,0.78286 -0.39604,1.13285 -0.0921,0.34999 -0.15043,0.6662 -0.17499,0.94864 -0.0246,0.28244 -0.0368,0.51577 -0.0368,0.69997 0,0.31928 0.10438,0.51577 0.31314,0.58945 -0.33156,0.0982 -0.70918,0.3592 -1.13285,0.78286 -0.42367,0.42367 -0.82891,0.95785 -1.21574,1.60256 -0.38683,0.64471 -0.71225,1.37231 -0.97627,2.1828 -0.26402,0.81049 -0.39604,1.64554 -0.39604,2.50516 0,0.17192 0.009,0.33463 0.0276,0.48814 0.0184,0.1535 0.0399,0.29779 0.0645,0.43288 -0.11052,-0.0614 -0.34077,-0.11973 -0.69076,-0.17499 -0.34999,-0.0553 -0.74909,-0.10438 -1.19732,-0.14736 -0.44823,-0.043 -0.90566,-0.0768 -1.37231,-0.10131 -0.46665,-0.0246 -0.87189,-0.0368 -1.21574,-0.0368 -0.36841,0 -0.74602,0.0154 -1.13285,0.046 -0.38683,0.0307 -0.7583,0.0675 -1.11443,0.11052 -0.35613,0.043 -0.68462,0.0921 -0.98548,0.14736 -0.30086,0.0553 -0.5434,0.10745 -0.7276,0.15657 0.0123,-0.086 0.0215,-0.18727 0.0276,-0.30393 0.006,-0.11666 0.009,-0.22411 0.009,-0.32235 0,-0.33156 -0.0276,-0.70918 -0.0829,-1.13285 -0.0553,-0.42367 -0.15043,-0.87803 -0.28551,-1.3631 -0.13508,-0.48507 -0.31928,-0.99469 -0.55261,-1.52888 -0.23332,-0.53419 -0.52805,-1.07759 -0.88417,-1.63019 -0.29472,0.40525 -0.55261,0.8504 -0.77365,1.33547 -0.22104,0.48507 -0.40525,0.96706 -0.55261,1.44599 -0.14736,0.47893 -0.25788,0.9425 -0.33156,1.39073 -0.0737,0.44823 -0.11052,0.84426 -0.11052,1.18811 0,0.17192 0.009,0.33463 0.0276,0.48814 0.0184,0.1535 0.0399,0.29779 0.0645,0.43288 -0.11052,-0.0614 -0.34077,-0.11973 -0.69076,-0.17499 -0.34999,-0.0553 -0.74909,-0.10438 -1.19732,-0.14736 -0.44823,-0.043 -0.90566,-0.0768 -1.37231,-0.10131 -0.46665,-0.0246 -0.86575,-0.0368 -1.19732,-0.0368 -0.36841,0 -0.74602,0.0154 -1.13285,0.046 -0.38683,0.0307 -0.76137,0.0675 -1.12364,0.11052 -0.36227,0.043 -0.69076,0.0921 -0.98548,0.14736 -0.29472,0.0553 -0.53419,0.10745 -0.71839,0.15657 z"
               data-paper-data="{&quot;elementType&quot;:&quot;letter&quot;,&quot;baseline&quot;:52.24609375,&quot;baselineProportion&quot;:1,&quot;fontSize&quot;:100}"
               id="path18" />
            <path
               d="m 363.61159,354.80272 c 0.15964,-0.28244 0.2763,-0.60787 0.34999,-0.97627 0.0737,-0.36841 0.11052,-0.74295 0.11052,-1.12364 0,-0.39297 -0.043,-0.78593 -0.12894,-1.1789 -0.086,-0.39297 -0.19648,-0.71225 -0.33156,-0.95785 0.33156,-0.11052 0.62936,-0.28858 0.89338,-0.53419 0.26402,-0.2456 0.49121,-0.52191 0.68155,-0.82891 0.19034,-0.307 0.34692,-0.62015 0.46972,-0.93943 0.1228,-0.31928 0.20262,-0.61401 0.23946,-0.88417 0.0614,0.0246 0.12894,0.0368 0.20262,0.0368 0.0737,0 0.1535,0 0.23946,0 0.90873,0 2.00781,-0.086 3.29723,-0.25788 1.28942,-0.17192 2.68322,-0.39911 4.1814,-0.68155 0.69997,-0.13508 1.27714,-0.30086 1.73151,-0.49735 0.45437,-0.19648 0.81663,-0.4206 1.0868,-0.67234 0.27016,-0.25174 0.45744,-0.52498 0.56182,-0.8197 0.10438,-0.29472 0.15657,-0.60787 0.15657,-0.93943 0,-0.60173 -0.15043,-1.06531 -0.4513,-1.39073 -0.30086,-0.32542 -0.8197,-0.48814 -1.55651,-0.48814 -0.97013,0 -1.68545,0.24253 -2.14596,0.7276 -0.46051,0.48507 -0.69076,1.28021 -0.69076,2.38542 -0.40525,-0.0982 -0.89645,-0.16885 -1.47362,-0.21183 -0.57717,-0.043 -1.21574,-0.0645 -1.91571,-0.0645 -0.35613,0 -0.71532,0.006 -1.07759,0.0184 -0.36227,0.0123 -0.71532,0.0276 -1.05917,0.046 -0.34385,0.0184 -0.66313,0.046 -0.95785,0.0829 -0.29472,0.0368 -0.54647,0.0798 -0.75523,0.12894 0.0737,-0.38069 0.13815,-0.81049 0.19341,-1.28942 0.0553,-0.47893 0.0829,-1.03768 0.0829,-1.67624 0,-0.20876 -0.003,-0.40218 -0.009,-0.58024 -0.006,-0.17806 -0.0184,-0.35306 -0.0368,-0.52498 -0.0184,-0.17192 -0.046,-0.35306 -0.0829,-0.5434 -0.0368,-0.19034 -0.086,-0.40218 -0.14736,-0.6355 0.51577,0 1.08066,-0.0522 1.69466,-0.15657 0.61401,-0.10438 1.21267,-0.24253 1.79598,-0.41446 0.58331,-0.17192 1.11443,-0.37455 1.59335,-0.60787 0.47893,-0.23332 0.84733,-0.47893 1.10522,-0.73681 0.22104,0.11052 0.43595,0.20569 0.64471,0.28551 0.20876,0.0798 0.44823,0.14736 0.71839,0.20262 0.27016,0.0553 0.58331,0.0952 0.93943,0.11973 0.35613,0.0246 0.78593,0.0368 1.28942,0.0368 1.15434,0 2.13982,-0.0583 2.95645,-0.17499 0.81663,-0.11666 1.40301,-0.27323 1.75914,-0.46972 0.19648,0.36841 0.47893,0.71839 0.84733,1.04996 0.36841,0.33156 0.77058,0.61708 1.20653,0.85654 0.43595,0.23946 0.87803,0.42981 1.32626,0.57103 0.44823,0.14122 0.85654,0.21183 1.22495,0.21183 h 0.16578 c -0.11052,0.27016 -0.20262,0.64471 -0.2763,1.12364 -0.0737,0.47893 -0.13508,1.01618 -0.1842,1.61177 -0.0491,0.59559 -0.086,1.22495 -0.11052,1.88808 -0.0246,0.66313 -0.0461,1.31705 -0.0645,1.96176 -0.0184,0.64471 -0.0276,1.24951 -0.0276,1.8144 0,0.56489 0,1.04382 0,1.43678 0,0.50349 0.043,0.9118 0.12894,1.22495 0.086,0.31314 0.25481,0.55568 0.50656,0.7276 0.25174,0.17192 0.60787,0.28858 1.06838,0.34999 0.46051,0.0614 1.05917,0.0921 1.79598,0.0921 -0.0491,0.14736 -0.0952,0.32849 -0.13815,0.5434 -0.043,0.2149 -0.0829,0.44516 -0.11973,0.69076 -0.0368,0.2456 -0.0645,0.49121 -0.0829,0.73681 -0.0184,0.2456 -0.0276,0.47279 -0.0276,0.68155 0,0.95785 0.1228,1.73151 0.36841,2.32095 -0.29472,-0.13508 -0.77365,-0.2456 -1.43678,-0.33156 -0.66313,-0.086 -1.38766,-0.12894 -2.17359,-0.12894 -0.88417,0 -1.66703,0.043 -2.34858,0.12894 -0.68155,0.086 -1.21881,0.19648 -1.61177,0.33156 -0.0982,-0.67541 -0.28551,-1.21574 -0.56182,-1.62098 -0.2763,-0.40525 -0.55568,-0.72453 -0.83812,-0.95785 -0.42981,0.13508 -0.82277,0.31621 -1.1789,0.5434 -0.35613,0.22718 -0.67234,0.47279 -0.94864,0.73681 -0.2763,0.26402 -0.50042,0.52805 -0.67234,0.79207 -0.17192,0.26402 -0.28244,0.49428 -0.33156,0.69076 -0.28244,-0.0737 -0.53726,-0.14736 -0.76444,-0.22104 -0.22718,-0.0737 -0.45744,-0.14429 -0.69076,-0.21183 -0.23332,-0.0675 -0.48507,-0.11973 -0.75523,-0.15657 -0.27016,-0.0368 -0.58945,-0.0553 -0.95785,-0.0553 -0.38069,0 -0.78286,0.0184 -1.20653,0.0553 -0.42367,0.0368 -0.84426,0.089 -1.26179,0.15657 -0.41753,0.0675 -0.80742,0.13815 -1.16969,0.21183 -0.36227,0.0737 -0.67234,0.14736 -0.93022,0.22104 -0.20876,-0.34385 -0.46665,-0.68462 -0.77365,-1.02232 -0.307,-0.3377 -0.6355,-0.64471 -0.98548,-0.92101 -0.34999,-0.2763 -0.71225,-0.50042 -1.0868,-0.67234 -0.37455,-0.17192 -0.73374,-0.26402 -1.07759,-0.2763 m 7.92066,-3.42619 c 0,0.29472 0.0614,0.55568 0.1842,0.78286 0.1228,0.22718 0.27937,0.41753 0.46972,0.57103 0.19034,0.1535 0.40218,0.27016 0.6355,0.34999 0.23332,0.0798 0.46051,0.11973 0.68155,0.11973 0.40525,0 0.8197,-0.0798 1.24337,-0.23946 0.42367,-0.15964 0.81356,-0.41446 1.16969,-0.76444 0.35613,-0.34999 0.65699,-0.80742 0.90259,-1.37231 0.2456,-0.56489 0.39297,-1.25258 0.44209,-2.06307 -1.0561,0.0246 -1.94948,0.0952 -2.68015,0.21183 -0.73067,0.11666 -1.32319,0.28244 -1.77756,0.49735 -0.45437,0.2149 -0.77979,0.482 -0.97627,0.80128 -0.19648,0.31928 -0.29472,0.68769 -0.29472,1.10522 z"
               data-paper-data="{&quot;elementType&quot;:&quot;letter&quot;,&quot;baseline&quot;:52.734375,&quot;baselineProportion&quot;:0.9908256880733946,&quot;fontSize&quot;:100}"
               id="path20" />
            <path
               d="m 396.4536,357.5105 c 0.0982,-0.31928 0.16578,-0.69997 0.20262,-1.14206 0.0368,-0.44209 0.0553,-0.87803 0.0553,-1.30784 0,-0.39297 -0.0246,-0.78593 -0.0737,-1.1789 -0.0491,-0.39297 -0.11052,-0.77979 -0.1842,-1.16048 0.68769,0 1.25565,-0.0307 1.70387,-0.0921 0.44823,-0.0614 0.80742,-0.16885 1.07759,-0.32235 0.27016,-0.1535 0.45744,-0.37148 0.56182,-0.65392 0.10438,-0.28244 0.15657,-0.64471 0.15657,-1.0868 v -5.12084 c -0.0123,-0.52805 -0.0798,-0.94864 -0.20262,-1.26179 -0.1228,-0.31314 -0.29165,-0.55261 -0.50656,-0.71839 -0.2149,-0.16578 -0.47893,-0.2763 -0.79207,-0.33156 -0.31314,-0.0553 -0.6662,-0.0829 -1.05917,-0.0829 H 396.822 c 0.0982,-0.2456 0.1842,-0.58638 0.25788,-1.02232 0.0737,-0.43595 0.11052,-0.89338 0.11052,-1.37231 0,-0.46665 -0.0338,-0.9118 -0.10131,-1.33547 -0.0675,-0.42367 -0.15657,-0.76444 -0.26709,-1.02232 0.35613,0.0491 0.78286,0.086 1.28021,0.11052 0.49735,0.0246 1.03461,0.0368 1.61177,0.0368 0.58945,0 1.20039,-0.0154 1.83282,-0.046 0.63243,-0.0307 1.24951,-0.0768 1.85124,-0.13815 0.60173,-0.0614 1.16969,-0.14736 1.70387,-0.25788 0.53419,-0.11052 0.99776,-0.23946 1.39073,-0.38683 -0.086,0.2456 -0.14429,0.49428 -0.17499,0.74602 -0.0307,0.25174 -0.0461,0.5127 -0.0461,0.78286 0,0.38069 0.0276,0.76137 0.0829,1.14206 0.0553,0.38069 0.11359,0.74909 0.17499,1.10522 0.52805,-0.14736 1.08373,-0.3592 1.66703,-0.6355 0.58331,-0.2763 1.12978,-0.58638 1.6394,-0.93022 0.50963,-0.34385 0.9425,-0.70611 1.29863,-1.0868 0.35613,-0.38069 0.57717,-0.75523 0.66313,-1.12364 0.35613,0.20876 0.8197,0.36841 1.39073,0.47893 0.57103,0.11052 1.22495,0.16578 1.96176,0.16578 0.29472,0 0.60173,-0.009 0.92101,-0.0276 0.31928,-0.0184 0.62936,-0.0491 0.93022,-0.0921 0.30086,-0.043 0.57717,-0.10745 0.82891,-0.19341 0.25174,-0.086 0.45744,-0.19648 0.61708,-0.33156 -0.0982,0.2456 -0.17499,0.55261 -0.23025,0.92101 -0.0553,0.36841 -0.0982,0.76444 -0.12894,1.18811 -0.0307,0.42367 -0.0522,0.85347 -0.0645,1.28942 -0.0123,0.43595 -0.0184,0.84426 -0.0184,1.22495 0,0.38069 0.0123,0.81356 0.0368,1.29863 0.0246,0.48507 0.0553,0.95171 0.0921,1.39994 0.0368,0.44823 0.0829,0.83812 0.13815,1.16969 0.0553,0.33156 0.11359,0.54033 0.17499,0.62629 -0.40525,-0.0982 -0.9118,-0.18113 -1.51967,-0.24867 -0.60787,-0.0675 -1.24337,-0.10131 -1.9065,-0.10131 -0.66313,0 -1.28942,0.0338 -1.87887,0.10131 -0.58945,0.0675 -1.06838,0.15043 -1.43678,0.24867 0,-1.31398 -0.15043,-2.23499 -0.4513,-2.76304 -0.30086,-0.52805 -0.74602,-0.79207 -1.33547,-0.79207 -0.29472,0 -0.61708,0.0829 -0.96706,0.24867 -0.34999,0.16578 -0.67541,0.40832 -0.97627,0.7276 -0.30086,0.31928 -0.56182,0.70918 -0.78286,1.16969 -0.22104,0.46051 -0.34999,0.98548 -0.38683,1.57493 l 0.0184,3.66563 c 0,0.44209 0.12587,0.80435 0.37762,1.0868 0.25174,0.28244 0.59866,0.50042 1.04075,0.65392 0.44209,0.1535 0.97013,0.26095 1.58414,0.32235 0.61401,0.0614 1.28328,0.0921 2.00781,0.0921 -0.0737,0.25788 -0.13201,0.57717 -0.17499,0.95785 -0.043,0.38069 -0.0645,0.78593 -0.0645,1.21574 0,0.46665 0.0184,0.93636 0.0553,1.40915 0.0368,0.47279 0.0982,0.87496 0.1842,1.20653 -0.39297,-0.0614 -0.87803,-0.11973 -1.4552,-0.17499 -0.57717,-0.0553 -1.2096,-0.10438 -1.89729,-0.14736 -0.68769,-0.043 -1.41836,-0.0768 -2.19201,-0.10131 -0.77365,-0.0246 -1.5473,-0.0368 -2.32095,-0.0368 -0.58945,0 -1.24951,0.009 -1.98018,0.0276 -0.73067,0.0184 -1.45213,0.0491 -2.16438,0.0921 -0.71225,0.043 -1.37231,0.0921 -1.98018,0.14736 -0.60787,0.0553 -1.07145,0.11973 -1.39073,0.19341 z"
               data-paper-data="{&quot;elementType&quot;:&quot;letter&quot;,&quot;baseline&quot;:52.734375,&quot;baselineProportion&quot;:1,&quot;fontSize&quot;:100}"
               id="path22" />
            <path
               d="m 428.54039,354.45274 c 0.2456,-0.29472 0.43595,-0.70611 0.57103,-1.23416 0.13508,-0.52805 0.23639,-1.10215 0.30393,-1.7223 0.0675,-0.62015 0.11052,-1.24337 0.12894,-1.86966 0.0184,-0.62629 0.0276,-1.1789 0.0276,-1.65782 0,-0.50349 -0.0184,-1.07452 -0.0553,-1.71309 -0.0368,-0.63857 -0.0952,-1.26179 -0.17499,-1.86966 -0.0798,-0.60787 -0.1842,-1.15741 -0.31314,-1.64861 -0.12894,-0.49121 -0.28551,-0.84733 -0.46972,-1.06838 0.54033,0 1.13592,-0.13815 1.78677,-0.41446 0.65085,-0.2763 1.26793,-0.62015 1.85124,-1.03154 0.58331,-0.41139 1.08987,-0.8504 1.51967,-1.31705 0.42981,-0.46665 0.69997,-0.89645 0.81049,-1.28942 0.67541,0.23332 1.47362,0.39911 2.39464,0.49735 0.92101,0.0982 2.06307,0.14736 3.42617,0.14736 0.95785,0 1.74993,-0.0553 2.37621,-0.16578 0.62629,-0.11052 1.13592,-0.27016 1.52888,-0.47893 0.20876,0.42981 0.55568,0.81663 1.04075,1.16048 0.48507,0.34385 1.01311,0.63857 1.58414,0.88417 0.57103,0.2456 1.14206,0.43902 1.71309,0.58024 0.57103,0.14122 1.04075,0.21797 1.40915,0.23025 -0.0982,0.20876 -0.18727,0.43595 -0.26709,0.68155 -0.0798,0.2456 -0.14736,0.53419 -0.20262,0.86575 -0.0553,0.33156 -0.0982,0.72146 -0.12894,1.16969 -0.0307,0.44823 -0.0461,0.9732 -0.0461,1.57493 0,0.41753 0.009,0.82277 0.0276,1.21574 0.0184,0.39297 0.046,0.75523 0.0829,1.0868 0.0368,0.33156 0.0768,0.62322 0.11973,0.87496 0.043,0.25174 0.089,0.43902 0.13815,0.56182 -0.307,-0.0246 -0.71839,-0.046 -1.23416,-0.0645 -0.51577,-0.0184 -1.08066,-0.0368 -1.69466,-0.0553 -0.61401,-0.0184 -1.25565,-0.0307 -1.92492,-0.0368 -0.66927,-0.006 -1.30477,-0.009 -1.9065,-0.009 -0.71225,0 -1.42143,0.003 -2.12754,0.009 -0.70611,0.006 -1.43371,0.009 -2.1828,0.009 -0.62629,0 -1.12364,0.0553 -1.49204,0.16578 -0.36841,0.11052 -0.64778,0.26095 -0.83812,0.4513 -0.19034,0.19034 -0.31314,0.4206 -0.36841,0.69076 -0.0553,0.27016 -0.0829,0.56489 -0.0829,0.88417 0,0.47893 0.11666,0.91487 0.34999,1.30784 0.23332,0.39297 0.55261,0.7276 0.95785,1.0039 0.40525,0.2763 0.88417,0.49121 1.43678,0.64471 0.55261,0.1535 1.14206,0.23025 1.76835,0.23025 0.51577,0 0.92715,-0.0768 1.23416,-0.23025 0.307,-0.1535 0.5434,-0.3592 0.70918,-0.61708 0.16578,-0.25788 0.27323,-0.55875 0.32235,-0.90259 0.0491,-0.34385 0.0737,-0.71225 0.0737,-1.10522 0.14736,0.0491 0.36841,0.0921 0.66313,0.12894 0.29472,0.0368 0.61401,0.0645 0.95785,0.0829 0.34385,0.0184 0.69076,0.0338 1.04075,0.0461 0.34999,0.0123 0.65392,0.0184 0.9118,0.0184 0.25788,0 0.55261,-0.006 0.88417,-0.0184 0.33156,-0.0123 0.66006,-0.0276 0.98548,-0.0461 0.32542,-0.0184 0.62936,-0.046 0.9118,-0.0829 0.28244,-0.0368 0.50963,-0.0798 0.68155,-0.12894 -0.0246,0.13508 -0.0522,0.31621 -0.0829,0.5434 -0.0307,0.22718 -0.0553,0.46972 -0.0737,0.7276 -0.0184,0.25788 -0.0338,0.51577 -0.046,0.77365 -0.0123,0.25788 -0.0184,0.47279 -0.0184,0.64471 0,0.60173 0.0215,1.08373 0.0645,1.44599 0.043,0.36227 0.11359,0.68462 0.21183,0.96706 h -0.33156 c -0.50349,0 -1.01925,0.0461 -1.5473,0.13815 -0.52805,0.0921 -1.03768,0.2149 -1.52888,0.36841 -0.49121,0.1535 -0.95171,0.33463 -1.38152,0.5434 -0.42981,0.20876 -0.79821,0.42981 -1.10522,0.66313 -0.17192,-0.11052 -0.40832,-0.20569 -0.70918,-0.28551 -0.30086,-0.0798 -0.63243,-0.14736 -0.99469,-0.20262 -0.36227,-0.0553 -0.74295,-0.0952 -1.14206,-0.11973 -0.39911,-0.0246 -0.78286,-0.0368 -1.15127,-0.0368 -0.44209,0 -0.90259,0.0184 -1.38152,0.0553 -0.47893,0.0368 -0.93636,0.089 -1.37231,0.15657 -0.43595,0.0675 -0.83198,0.13815 -1.18811,0.21183 -0.35613,0.0737 -0.63243,0.14736 -0.82891,0.22104 -0.11052,-0.31928 -0.39604,-0.66927 -0.85654,-1.04996 -0.46051,-0.38069 -0.99776,-0.73374 -1.61177,-1.05917 -0.61401,-0.32542 -1.26486,-0.59866 -1.95255,-0.8197 -0.68769,-0.22104 -1.31398,-0.33156 -1.87887,-0.33156 -0.0614,0 -0.11666,0.003 -0.16578,0.009 -0.0491,0.006 -0.0982,0.009 -0.14736,0.009 m 12.24946,-9.43115 c 0.49121,0 0.8811,-0.0184 1.16969,-0.0553 0.28858,-0.0368 0.50963,-0.11052 0.66313,-0.22104 0.1535,-0.11052 0.25174,-0.26095 0.29472,-0.4513 0.043,-0.19034 0.0645,-0.44516 0.0645,-0.76444 0,-0.58945 -0.25174,-1.06838 -0.75523,-1.43678 -0.50349,-0.36841 -1.28942,-0.55261 -2.35779,-0.55261 -0.66313,0 -1.23416,0.0553 -1.71309,0.16578 -0.47893,0.11052 -0.8811,0.30086 -1.20653,0.57103 -0.32542,0.27016 -0.5741,0.62629 -0.74602,1.06838 -0.17192,0.44209 -0.2763,1.00083 -0.31314,1.67624 z"
               data-paper-data="{&quot;elementType&quot;:&quot;letter&quot;,&quot;baseline&quot;:52.734375,&quot;baselineProportion&quot;:0.9908256880733946,&quot;fontSize&quot;:100}"
               id="path24" />
          </g>
        </g>
      </g>
    </g>
    <g
       data-paper-data="{&quot;elementType&quot;:&quot;emblem&quot;}"
       id="g40">
      <g
         data-paper-data="{&quot;baselineProportion&quot;:1,&quot;fontSize&quot;:100,&quot;baseline&quot;:70.3125,&quot;elementType&quot;:&quot;word&quot;}"
         id="g38">
        <path
           d="m 90,307.88629 c 0.45995,-1.91645 0.8624,-4.23535 1.20736,-6.9567 0.34496,-2.72135 0.51744,-5.53853 0.51744,-8.45153 0,-2.68303 -0.19164,-5.30856 -0.57493,-7.8766 -0.38329,-2.56804 -0.76658,-4.77195 -1.14987,-6.61174 3.83289,0 7.07169,-0.2683 9.71639,-0.80491 2.6447,-0.53661 4.81028,-1.43734 6.49675,-2.70219 1.68647,-1.26485 2.89383,-2.98966 3.62208,-5.17441 0.72825,-2.18475 1.09237,-4.92527 1.09237,-8.22156 0,-6.43926 -0.17248,-11.95863 -0.51744,-16.5581 -0.34496,-4.59947 -0.84324,-8.39404 -1.49483,-11.38369 -0.65159,-2.98966 -1.47566,-5.27023 -2.47222,-6.84171 -0.99655,-1.57149 -2.14642,-2.54887 -3.4496,-2.93216 1.37984,-0.45995 2.56804,-1.28402 3.56459,-2.47222 0.99655,-1.1882 1.82062,-3.12381 2.47222,-5.80683 0.65159,-2.68303 1.1307,-6.26678 1.43734,-10.75127 0.30663,-4.48449 0.45995,-10.25299 0.45995,-17.30551 0,-3.06631 -0.44078,-5.5577 -1.32235,-7.47414 -0.88157,-1.91645 -2.12726,-3.43044 -3.73707,-4.54198 -1.60982,-1.11154 -3.56459,-1.85895 -5.86433,-2.24224 -2.29974,-0.38329 -4.86777,-0.57493 -7.70412,-0.57493 h -2.29974 c 0.38329,-1.83979 0.76658,-3.96704 1.14987,-6.38177 0.38329,-2.41472 0.57493,-4.9636 0.57493,-7.64662 0,-2.83634 -0.17248,-5.71101 -0.51744,-8.62401 -0.34496,-2.913 -0.74741,-5.32772 -1.20736,-7.24417 1.4565,0.53661 3.73707,1.03488 6.84171,1.49483 3.10464,0.45995 6.66923,0.88157 10.69377,1.26485 4.02454,0.38329 8.33654,0.68992 12.93602,0.91989 4.59947,0.22997 9.08396,0.34496 13.45346,0.34496 4.3695,0 8.83482,-0.11499 13.39596,-0.34496 4.56114,-0.22997 8.85398,-0.53661 12.87852,-0.91989 4.02454,-0.38329 7.60829,-0.80491 10.75127,-1.26485 3.14297,-0.45995 5.48104,-0.95822 7.0142,-1.49483 -0.45995,1.91645 -0.8624,4.33117 -1.20736,7.24417 -0.34496,2.913 -0.51744,5.78767 -0.51744,8.62401 0,2.68303 0.19164,5.2319 0.57493,7.64662 0.38329,2.41472 0.76658,4.54198 1.14987,6.38177 h -2.18475 c -2.60637,0 -5.04025,0.19164 -7.30166,0.57493 -2.26141,0.38329 -4.23535,1.1307 -5.92182,2.24224 -1.68647,1.11154 -3.02799,2.62553 -4.02454,4.54198 -0.99655,1.91645 -1.49483,4.40783 -1.49483,7.47414 0,5.28939 0.0767,9.77388 0.22997,13.45346 0.15332,3.67958 0.42162,6.86088 0.80491,9.5439 4.3695,0.84324 9.35226,1.4565 14.94828,1.83979 5.59602,0.38329 11.38369,0.57493 17.36301,0.57493 5.97931,0 11.74782,-0.21081 17.30551,-0.63243 5.5577,-0.42162 10.52129,-1.05405 14.89079,-1.89728 0.38329,-2.68303 0.65159,-5.88349 0.80491,-9.6014 0.15332,-3.71791 0.22997,-8.1449 0.22997,-13.28098 0,-3.06631 -0.44078,-5.5577 -1.32235,-7.47414 -0.88157,-1.91645 -2.12726,-3.43044 -3.73707,-4.54198 -1.60982,-1.11154 -3.56459,-1.85895 -5.86433,-2.24224 -2.29974,-0.38329 -4.86777,-0.57493 -7.70412,-0.57493 h -2.29974 c 0.38329,-1.83979 0.76658,-3.96704 1.14987,-6.38177 0.38329,-2.41472 0.57493,-4.9636 0.57493,-7.64662 0,-2.83634 -0.17248,-5.71101 -0.51744,-8.62401 -0.34496,-2.913 -0.74741,-5.32772 -1.20736,-7.24417 1.4565,0.53661 3.73707,1.03488 6.84171,1.49483 3.10464,0.45995 6.66923,0.88157 10.69377,1.26485 4.02454,0.38329 8.33654,0.68992 12.93602,0.91989 4.59947,0.22997 9.08396,0.34496 13.45346,0.34496 4.3695,0 8.83482,-0.11499 13.39596,-0.34496 4.56114,-0.22997 8.85398,-0.53661 12.87852,-0.91989 4.02454,-0.38329 7.60829,-0.80491 10.75127,-1.26485 3.14297,-0.45995 5.48104,-0.95822 7.0142,-1.49483 -0.45995,1.91645 -0.8624,4.33117 -1.20736,7.24417 -0.34496,2.913 -0.51744,5.78767 -0.51744,8.62401 0,2.68303 0.19164,5.2319 0.57493,7.64662 0.38329,2.41472 0.76658,4.54198 1.14987,6.38177 h -2.18475 c -2.60637,0 -5.04025,0.19164 -7.30166,0.57493 -2.26141,0.38329 -4.23535,1.1307 -5.92182,2.24224 -1.68647,1.11154 -3.02799,2.62553 -4.02454,4.54198 -0.99655,1.91645 -1.49483,4.40783 -1.49483,7.47414 0,7.05252 0.15332,12.82103 0.45995,17.30551 0.30663,4.48449 0.78574,8.06824 1.43734,10.75127 0.65159,2.68303 1.47566,4.61864 2.47222,5.80683 0.99655,1.1882 2.18475,2.01227 3.56459,2.47222 -1.30318,0.38329 -2.45305,1.36068 -3.4496,2.93216 -0.99655,1.57149 -1.82062,3.85206 -2.47222,6.84171 -0.65159,2.98966 -1.14987,6.78422 -1.49483,11.38369 -0.34496,4.59947 -0.51744,10.11884 -0.51744,16.5581 0,3.29629 0.44078,6.03681 1.32235,8.22156 0.88157,2.18475 2.20391,3.90955 3.96704,5.17441 1.76313,1.26485 3.94788,2.16558 6.55425,2.70219 2.60637,0.53661 5.63435,0.80491 9.08396,0.80491 -0.38329,1.83979 -0.76658,4.0437 -1.14987,6.61174 -0.38329,2.56804 -0.57493,5.19357 -0.57493,7.8766 0,2.913 0.17248,5.73018 0.51744,8.45153 0.34496,2.72135 0.74741,5.04025 1.20736,6.9567 -2.22308,-0.45995 -5.02109,-0.8624 -8.39404,-1.20736 -3.37295,-0.34496 -7.05252,-0.65159 -11.03873,-0.91989 -3.98621,-0.2683 -8.10657,-0.45995 -12.36108,-0.57493 -4.25451,-0.11499 -8.33654,-0.17248 -12.24609,-0.17248 -3.90955,0 -7.99158,0.0575 -12.24609,0.17248 -4.25451,0.11499 -8.37487,0.30663 -12.36108,0.57493 -3.98621,0.2683 -7.66579,0.57493 -11.03873,0.91989 -3.37295,0.34496 -6.13263,0.74741 -8.27905,1.20736 0.45995,-1.91645 0.8624,-4.23535 1.20736,-6.9567 0.34496,-2.72135 0.51744,-5.53853 0.51744,-8.45153 0,-2.68303 -0.19164,-5.30856 -0.57493,-7.8766 -0.38329,-2.56804 -0.76658,-4.77195 -1.14987,-6.61174 3.83289,0 7.07169,-0.2683 9.71639,-0.80491 2.6447,-0.53661 4.81028,-1.43734 6.49675,-2.70219 1.68647,-1.26485 2.89383,-2.98966 3.62208,-5.17441 0.72825,-2.18475 1.09237,-4.92527 1.09237,-8.22156 0,-9.12229 -0.34496,-16.51977 -1.03488,-22.19245 -4.3695,-0.91989 -9.31393,-1.62898 -14.8333,-2.12726 -5.51937,-0.49828 -11.30704,-0.74741 -17.36301,-0.74741 -5.74934,0 -11.46035,0.22997 -17.13303,0.68992 -5.67268,0.45995 -10.7321,1.11154 -15.17826,1.95478 -0.68992,5.67268 -1.03488,13.14682 -1.03488,22.42243 0,3.29629 0.44078,6.03681 1.32235,8.22156 0.88157,2.18475 2.20391,3.90955 3.96704,5.17441 1.76313,1.26485 3.94788,2.16558 6.55425,2.70219 2.60637,0.53661 5.63435,0.80491 9.08396,0.80491 -0.38329,1.83979 -0.76658,4.0437 -1.14987,6.61174 -0.38329,2.56804 -0.57493,5.19357 -0.57493,7.8766 0,2.913 0.17248,5.73018 0.51744,8.45153 0.34496,2.72135 0.74741,5.04025 1.20736,6.9567 -2.22308,-0.45995 -5.02109,-0.8624 -8.39404,-1.20736 -3.37295,-0.34496 -7.05252,-0.65159 -11.03873,-0.91989 -3.98621,-0.2683 -8.10657,-0.45995 -12.36108,-0.57493 -4.25451,-0.11499 -8.33654,-0.17248 -12.24609,-0.17248 -3.90955,0 -7.99158,0.0575 -12.24609,0.17248 -4.25451,0.11499 -8.37487,0.30663 -12.36108,0.57493 -3.98621,0.2683 -7.66579,0.57493 -11.03873,0.91989 -3.37295,0.34496 -6.13263,0.74741 -8.27905,1.20736 z"
           data-paper-data="{&quot;elementType&quot;:&quot;letter&quot;,&quot;baseline&quot;:70.3125,&quot;baselineProportion&quot;:1,&quot;fontSize&quot;:100}"
           id="path34" />
        <path
           d="m 352.62158,307.88629 c 0.91989,-2.06976 1.70564,-5.15524 2.35723,-9.25644 0.65159,-4.1012 0.97739,-9.06479 0.97739,-14.89079 0,-2.68303 -0.0958,-5.30856 -0.28747,-7.8766 -0.19164,-2.56804 -0.44078,-4.9636 -0.74741,-7.18668 -0.30663,-2.22308 -0.67076,-4.21618 -1.09237,-5.97931 -0.42162,-1.76313 -0.8624,-3.1813 -1.32235,-4.25451 1.37984,0.45995 3.10464,0.90073 5.17441,1.32235 2.06976,0.42162 4.40783,0.78574 7.0142,1.09237 2.60637,0.30663 5.36605,0.55577 8.27905,0.74741 2.913,0.19164 5.86433,0.28747 8.85398,0.28747 2.75968,0 5.5577,-0.0575 8.39404,-0.17248 2.83634,-0.11499 5.51937,-0.3258 8.04908,-0.63243 2.52971,-0.30663 4.81028,-0.67076 6.84171,-1.09237 2.03143,-0.42162 3.66041,-0.93906 4.88694,-1.55232 -0.45995,1.07321 -0.8624,2.51055 -1.20736,4.31201 -0.34496,1.80146 -0.65159,3.81373 -0.91989,6.03681 -0.2683,2.22308 -0.45995,4.61864 -0.57493,7.18668 -0.11499,2.56804 -0.17248,5.15524 -0.17248,7.76161 0,5.05942 0.22997,9.67806 0.68992,13.85591 0.45995,4.17785 1.1882,7.60829 2.18475,10.29132 -1.22653,-0.38329 -2.85551,-0.74741 -4.88694,-1.09237 -2.03143,-0.34496 -4.33117,-0.65159 -6.89921,-0.91989 -2.56804,-0.2683 -5.30856,-0.47911 -8.22156,-0.63243 -2.913,-0.15332 -5.86433,-0.22997 -8.85398,-0.22997 -2.98966,0 -5.92182,0.0767 -8.79649,0.22997 -2.87467,0.15332 -5.57686,0.36412 -8.10657,0.63243 -2.52971,0.2683 -4.79112,0.57493 -6.78422,0.91989 -1.9931,0.34496 -3.60292,0.70909 -4.82945,1.09237 z"
           data-paper-data="{&quot;elementType&quot;:&quot;letter&quot;,&quot;baseline&quot;:20.99609375,&quot;baselineProportion&quot;:1,&quot;fontSize&quot;:100}"
           id="path36" />
      </g>
    </g>
  </g>
</svg>
